<?xml version="1.0" encoding="utf-8"?>
<!-- Generator: Adobe Illustrator 16.0.0, SVG Export Plug-In . SVG Version: 6.00 Build 0)  -->
<!DOCTYPE svg PUBLIC "-//W3C//DTD SVG 1.1//EN" "http://www.w3.org/Graphics/SVG/1.1/DTD/svg11.dtd">
<svg version="1.1" id="Layer_1" xmlns="http://www.w3.org/2000/svg" xmlns:xlink="http://www.w3.org/1999/xlink" x="0px" y="0px"
	 width="3375.848px" height="2462px" viewBox="0 0 3375.848 2462" enable-background="new 0 0 3375.848 2462" xml:space="preserve">
<rect id="Background" x="-684" y="-20" opacity="0" fill="#262262" width="5495.334" height="2482"/>
<g id="Stars" opacity="0">
	<g>
		
			<line fill="none" stroke="#FFFFFF" stroke-width="6" stroke-miterlimit="10" x1="3071.761" y1="1379.913" x2="3161.06" y2="1203.134"/>
		
			<line fill="none" stroke="#FFFFFF" stroke-width="6" stroke-miterlimit="10" x1="3161.06" y1="1475.583" x2="3258.957" y2="1359.043"/>
		
			<line fill="none" stroke="#FFFFFF" stroke-width="6" stroke-miterlimit="10" x1="3067.462" y1="1475.583" x2="3165.359" y2="1359.043"/>
	</g>
	<path d="M821.682,1529.692"/>
	<path fill="none" stroke="#FFFFFF" stroke-width="10" stroke-miterlimit="10" d="M856,1521.333"/>
	<path fill="none" stroke="#FFFFFF" stroke-width="10" stroke-miterlimit="10" d="M748.667,1526.667"/>
	<path fill="none" stroke="#FFFFFF" stroke-width="10" stroke-miterlimit="10" d="M849.682,1511.333"/>
	<path fill="none" stroke="#FFFFFF" stroke-width="10" stroke-miterlimit="10" d="M749.682,1511.333"/>
	<path fill="#FFFFFF" d="M2850,1009c-6.449,0-6.449,10,0,10S2856.449,1009,2850,1009z"/>
	<path fill="#FFFFFF" d="M2072,1083c-6.449,0-6.449,10,0,10S2078.449,1083,2072,1083z"/>
	<path fill="#FFFFFF" d="M2296,1217c-6.449,0-6.449,10,0,10S2302.449,1217,2296,1217z"/>
	<path fill="#FFFFFF" d="M2472,1011c-6.449,0-6.449,10,0,10S2478.449,1011,2472,1011z"/>
	<path fill="#FFFFFF" d="M1960,1277c-6.449,0-6.449,10,0,10S1966.449,1277,1960,1277z"/>
	<path fill="#FFFFFF" d="M2234,1451c-6.449,0-6.449,10,0,10S2240.449,1451,2234,1451z"/>
	<path fill="#FFFFFF" d="M2606,1549c-6.449,0-6.449,10,0,10S2612.449,1549,2606,1549z"/>
	<path fill="#FFFFFF" d="M2528,1823c-6.449,0-6.449,10,0,10S2534.449,1823,2528,1823z"/>
	<path fill="#FFFFFF" d="M2302,1661c-6.449,0-6.449,10,0,10S2308.449,1661,2302,1661z"/>
	<path fill="#FFFFFF" d="M2812,787c-6.449,0-6.449,10,0,10S2818.449,787,2812,787z"/>
	<path fill="#FFFFFF" d="M1894,945c-6.449,0-6.449,10,0,10S1900.449,945,1894,945z"/>
	<path fill="#FFFFFF" d="M2258,883c-6.449,0-6.449,10,0,10S2264.449,883,2258,883z"/>
	<path fill="#FFFFFF" d="M3190,949c-6.449,0-6.449,10,0,10S3196.449,949,3190,949z"/>
	<path fill="#FFFFFF" d="M2664,1349c-6.449,0-6.449,10,0,10S2670.449,1349,2664,1349z"/>
	<path fill="#FFFFFF" d="M3314,1237c-6.449,0-6.449,10,0,10S3320.449,1237,3314,1237z"/>
	<path fill="#FFFFFF" d="M3064,1107c-6.449,0-6.449,10,0,10S3070.449,1107,3064,1107z"/>
	<path fill="#FFFFFF" d="M3066,1531c-6.449,0-6.449,10,0,10S3072.449,1531,3066,1531z"/>
	<path fill="#FFFFFF" d="M2476,2163c-6.449,0-6.449,10,0,10S2482.449,2163,2476,2163z"/>
	<path fill="#FFFFFF" d="M2728,1935c-6.449,0-6.449,10,0,10S2734.449,1935,2728,1935z"/>
	<path fill="#FFFFFF" d="M2688,1797c-6.449,0-6.449,10,0,10S2694.449,1797,2688,1797z"/>
	<path fill="#FFFFFF" d="M1916,2067c-6.449,0-6.449,10,0,10S1922.449,2067,1916,2067z"/>
	<path fill="#FFFFFF" d="M2104,1965c-6.449,0-6.449,10,0,10S2110.449,1965,2104,1965z"/>
	<path fill="#FFFFFF" d="M1764,1661c-6.449,0-6.449,10,0,10S1770.449,1661,1764,1661z"/>
	<path fill="#FFFFFF" d="M2670,981c-6.449,0-6.449,10,0,10S2676.449,981,2670,981z"/>
	<path fill="#FFFFFF" d="M1516,1407c-6.448,0-6.448,10,0,10S1522.448,1407,1516,1407z"/>
	<path fill="#FFFFFF" d="M778,1427c-6.449,0-6.449,10,0,10S784.449,1427,778,1427z"/>
	<path fill="#FFFFFF" d="M1290,1671c-6.448,0-6.448,10,0,10S1296.448,1671,1290,1671z"/>
	<path fill="#FFFFFF" d="M920,1725c-6.449,0-6.449,10,0,10C926.448,1735,926.448,1725,920,1725z"/>
	<path fill="#FFFFFF" d="M1504,1823c-6.448,0-6.448,10,0,10S1510.448,1823,1504,1823z"/>
	<path fill="#FFFFFF" d="M1309.856,1060.698c-6.448,0-6.448,10,0,10S1316.305,1060.698,1309.856,1060.698z"/>
	<path fill="#FFFFFF" d="M892.815,1027.695c-6.449,0-6.449,10,0,10S899.264,1027.695,892.815,1027.695z"/>
	<path fill="#FFFFFF" d="M2311.957,526.645c-6.449,0-6.449,10,0,10S2318.406,526.645,2311.957,526.645z"/>
	<path fill="#FFFFFF" d="M3056.031,439.636c-6.449,0-6.449,10,0,10S3062.48,439.636,3056.031,439.636z"/>
	<path fill="#FFFFFF" d="M2632.989,412.633c-6.448,0-6.448,10,0,10S2639.438,412.633,2632.989,412.633z"/>
	<path fill="#FFFFFF" d="M2011.927,157.608c-6.448,0-6.448,10,0,10S2018.375,157.608,2011.927,157.608z"/>
	<path fill="#FFFFFF" d="M1939.92,598.652c-6.449,0-6.449,10,0,10S1946.369,598.652,1939.92,598.652z"/>
	<path fill="#FFFFFF" d="M526.778,853.678c-6.449,0-6.449,10,0,10S533.227,853.678,526.778,853.678z"/>
	<path fill="#FFFFFF" d="M481.774,1501.742c-6.449,0-6.449,10,0,10S488.223,1501.742,481.774,1501.742z"/>
	<path fill="#FFFFFF" d="M1090.835,1285.721c-6.448,0-6.448,10,0,10S1097.283,1285.721,1090.835,1285.721z"/>
	<path fill="#FFFFFF" d="M1621.888,1072.699c-6.448,0-6.448,10,0,10S1628.336,1072.699,1621.888,1072.699z"/>
	<path fill="#FFFFFF" d="M1168.843,790.671c-6.448,0-6.448,10,0,10S1175.291,790.671,1168.843,790.671z"/>
	<path fill="#FFFFFF" d="M403.766,238.616c-6.449,0-6.449,10,0,10S410.215,238.616,403.766,238.616z"/>
	<path fill="#FFFFFF" d="M1213.848,97.602c-6.448,0-6.448,10,0,10S1220.296,97.602,1213.848,97.602z"/>
	<path fill="#FFFFFF" d="M164,1249c-6.449,0-6.449,10,0,10S170.449,1249,164,1249z"/>
	<path fill="#FFFFFF" d="M0,701c-6.449,0-6.449,10,0,10S6.449,701,0,701z"/>
	<path fill="#FFFFFF" d="M-424,333c-6.449,0-6.449,10,0,10S-417.551,333-424,333z"/>
	<path fill="#FFFFFF" d="M-356,1329c-6.449,0-6.449,10,0,10S-349.551,1329-356,1329z"/>
	<path fill="#FFFFFF" d="M-344,973c-6.449,0-6.449,10,0,10S-337.551,973-344,973z"/>
	<path fill="#FFFFFF" d="M104,1817c-6.449,0-6.449,10,0,10S110.449,1817,104,1817z"/>
	<path fill="#FFFFFF" d="M-440,1893c-6.449,0-6.449,10,0,10S-433.551,1893-440,1893z"/>
	<path fill="#FFFFFF" d="M-136,1549c-6.449,0-6.449,10,0,10S-129.551,1549-136,1549z"/>
	<path fill="#FFFFFF" d="M3432,97c-6.449,0-6.449,10,0,10S3438.449,97,3432,97z"/>
	<path fill="#FFFFFF" d="M3424,585c-6.449,0-6.449,10,0,10S3430.449,585,3424,585z"/>
	<path fill="#FFFFFF" d="M3532,1037c-6.449,0-6.449,10,0,10S3538.449,1037,3532,1037z"/>
	<path fill="#FFFFFF" d="M3972,545c-6.449,0-6.449,10,0,10S3978.449,545,3972,545z"/>
	<path fill="#FFFFFF" d="M3716,317c-6.449,0-6.449,10,0,10S3722.449,317,3716,317z"/>
	<path fill="#FFFFFF" d="M3696,837c-6.449,0-6.449,10,0,10S3702.449,837,3696,837z"/>
	<path fill="#FFFFFF" d="M4536,209c-6.449,0-6.449,10,0,10S4542.449,209,4536,209z"/>
	<path fill="#FFFFFF" d="M4332,841c-6.449,0-6.449,10,0,10S4338.449,841,4332,841z"/>
	<path fill="#FFFFFF" d="M4212,261c-6.449,0-6.449,10,0,10S4218.449,261,4212,261z"/>
	<path fill="#FFFFFF" d="M4732,1441c-6.449,0-6.449,10,0,10S4738.449,1441,4732,1441z"/>
	<path fill="#FFFFFF" d="M4572,985c-6.449,0-6.449,10,0,10S4578.449,985,4572,985z"/>
	<path fill="#FFFFFF" d="M4644,553c-6.449,0-6.449,10,0,10S4650.449,553,4644,553z"/>
	<path fill="#FFFFFF" d="M4384,597c-6.449,0-6.449,10,0,10S4390.449,597,4384,597z"/>
	<path fill="#FFFFFF" d="M4436,1257c-6.449,0-6.449,10,0,10S4442.449,1257,4436,1257z"/>
	<path fill="#FFFFFF" d="M4744,1893c-2.726,0-5,2.274-5,5v4c0,2.726,2.274,5,5,5s5-2.274,5-5v-4
		C4749,1895.274,4746.726,1893,4744,1893z"/>
	<path fill="#FFFFFF" d="M2972,249c-6.449,0-6.449,10,0,10S2978.449,249,2972,249z"/>
	<path fill="#FFFFFF" d="M436,1205c-6.449,0-6.449,10,0,10S442.449,1205,436,1205z"/>
	<path fill="#FFFFFF" d="M-80,989c-6.449,0-6.449,10,0,10S-73.551,989-80,989z"/>
	<path fill="#FFFFFF" d="M2324,261c-6.449,0-6.449,10,0,10S2330.449,261,2324,261z"/>
	<path fill="#FFFFFF" d="M-340,605c-6.449,0-6.449,10,0,10S-333.551,605-340,605z"/>
	<path fill="#FFFFFF" d="M328,681c-6.449,0-6.449,10,0,10S334.449,681,328,681z"/>
</g>
<g id="Ground_1_">
	<polygon id="Ground" fill="#BCBEC0" points="-713.031,2363.75 1508.836,2339 1483.575,2462 -694.622,2462 	"/>
	<g id="Mountain">
		<path fill="#BCBEC0" d="M3376.029,2443.5h1423.207c0,0-415.665-1156.648-687.07-1428.305
			c-245.651-245.879-747.233,418.403-736.137,393.305"/>
		<path fill="#BCBEC0" d="M1474.575,2462H3379l-2-1053c0,0-676.998,720.097-754.994,801.093s-332.983,277.485-708.965,30.498
			L1589,1984.12"/>
		<path fill="#E6E7E8" d="M1483.575,2462H3378V1426c0,0-676.998,720.097-754.994,801.093s-332.983,277.485-707.965,31.498
			L1591,2002.12"/>
		<path fill="#E6E7E8" d="M3376.029,2461h1423.207c0,0-415.665-1156.648-687.07-1428.305
			C3865.697,785.998,3365.75,1449.25,3376.029,1426"/>
	</g>
</g>
<g id="Shmulik">
	<g>
		<polygon fill="#F79521" points="2964.579,1786.66 2949.971,1766.067 2980.778,1722.383 3022.554,1712.317 		"/>
		
			<rect x="2909.863" y="1760.379" transform="matrix(0.7885 0.6151 -0.6151 0.7885 1712.7827 -1432.0437)" fill="#E9262A" width="57.005" height="27.45"/>
	</g>
	<g>
		<path fill="#F79521" d="M2955.355,1598.326c12.673,31.063-0.694,106.264-69.392,134.295l-6.524-15.998
			c72.861-29.733,52.025-94.499,52.025-94.499L2955.355,1598.326z"/>
		
			<ellipse transform="matrix(-0.378 -0.9258 0.9258 -0.378 2378.3618 5046.6074)" fill="#FDC888" cx="2884.551" cy="1724.311" rx="11.519" ry="12.81"/>
	</g>
	<g>
		<path d="M2847.48,1893.648c-16.224-9.956-21.753-15.956-30.054-23.455c-20.972-18.943-52.98-67.027-56.745-87.782
			c-3.762-20.753,1.951-39.544,17.145-56.363c22.494-24.903,48.4-30.631,78.808-30.266c37.011,0.445,106.437,21.496,138.327,50.302
			c4.043,3.652,7.441,6.915,10.19,9.8c21.51-23.813,98.193-107.395,126.929-142.725l30.435,23.613
			c-27.998,34.775-147.803,157.97-181.548,195.429c-31.599,35.076-45.045,48.05-66.591,63.399
			C2891.45,1911.935,2863.278,1903.342,2847.48,1893.648z M2819.918,1745.617c-32.661,36.81,0.547,92.351,32.883,114.916
			c14.244,9.939,22.744,9.651,34.857,7.983c12.115-1.667,58.229-50.681,92.267-88.362c-3.623-3.673-8.222-8.024-13.794-13.055
			C2916.874,1722.606,2856.224,1704.699,2819.918,1745.617z"/>
	</g>
	<g>
		<polygon fill="#F79521" points="3020.736,1764.853 3007.274,1743.359 3036.473,1709.271 3073.217,1700.449 		"/>
		
			<rect x="2966.49" y="1737.703" transform="matrix(0.7716 0.6361 -0.6361 0.7716 1797.9955 -1505.0537)" fill="#E9262A" width="57.004" height="27.451"/>
	</g>
	<g>
		<g>
			<polygon fill="#E9262A" points="3073.217,1700.449 2980.494,1722.708 2970.897,1704.883 3060.917,1680.813 			"/>
			<polygon fill="#F79521" points="3062.385,1683.328 2970.897,1704.883 2934.189,1646.274 2927.601,1613.692 2982.734,1579.767 
				3007.411,1595.561 			"/>
		</g>
		<g>
			<path fill="#E9262A" d="M3034.672,1670.045c0.311,0.496,0.396,0.869,0.259,1.121c-0.052,0.129-0.342,0.394-0.881,0.796
				c-1.353,1.044-3.695,1.813-6.315,3.455c-3.706,2.32-6.643,2.471-7.381,2.735c-0.737,0.266-1.26,0.15-1.571-0.345
				c-1.169-1.865-1.76-3.007-3.924-6.859c-2.168-3.852-2.402-4.423-3.57-6.288c-0.578-0.92-1.171-1.288-1.778-1.105
				c-0.919,0.314-4.096,1.009-10.151,2.914c-6.134,1.928-8.851,3.154-9.559,3.86c-0.444,0.445-0.37,1.138,0.217,2.081
				c1.221,1.945,0.889,1.314,3.565,5.298c2.417,3.596,1.695,2.313,2.85,4.153c0.441,0.708,0.384,1.323-0.179,1.838
				c-0.669,0.615-3.126,1.843-7.239,3.237c-3.454,1.171-6.693,0.911-7.655,1.315c-0.757,0.311-1.328,0.16-1.713-0.454
				c-1.597-2.549,0.771,0.958-2.202-4.342c-2.976-5.301-2.404-4.664-4.017-7.236c-1.714-2.738-4.409-6.777-8.079-12.115
				c-3.677-5.34-8.874-13.379-10.591-16.118c-0.325-0.518-0.238-0.934,0.257-1.244c0.73-0.458,2.215-0.542,3.734-1.396
				c1.521-0.854,2.866-1.362,3.634-1.679c0.825-0.343,1.691-0.795,3.629-1.41c2.489-0.793,3.304-0.81,4.246-1.083
				c0.453-0.134,0.733-0.166,1,0.259c1.109,1.77,0.849,1.644,2.8,5.334c1.95,3.691,4.553,8.137,5.662,9.906
				c0.518,0.827,1.044,1.17,1.582,1.031c0.731-0.195,3.615-1.609,10.315-3.679c6.711-2.074,9.349-2.805,10.032-3.496
				c0.479-0.497,0.457-1.157-0.059-1.984c-1.066-1.699-3.831-5.928-6.146-9.259c-2.315-3.331-4.012-5.856-5.092-7.58
				c-0.457-0.731-0.393-1.283,0.197-1.652c0.686-0.429,1.968-0.809,3.56-1.285c1.617-0.483,2.79-1.062,3.592-1.307
				c1.055-0.321,2.347-0.704,3.809-1.273c1.547-0.603,2.381-0.961,3.434-1.17c0.794-0.158,1.206-0.361,1.559,0.206
				c1.7,2.713,2.362,4.023,5.569,9.637c3.205,5.616,5.664,9.792,7.379,12.53c1.612,2.573,4.152,6.354,7.622,11.344
				C3030.543,1663.727,3033.075,1667.496,3034.672,1670.045z"/>
		</g>
	</g>
	<g>
		<g>
			<circle fill="#FDC888" cx="2911.708" cy="1526.529" r="88.764"/>
			<path d="M2864.908,1450.935c-36.011,21.707-50.718,66.25-37.498,104.447l98.69-61.631l55.121,88.006
				c23.015-28.644,26.634-69.816,6.028-102.713C2961.229,1437.499,2908.024,1424.945,2864.908,1450.935z"/>
		</g>
		<g>
			<g>
				<path fill="#FFFFFF" d="M2924.375,1517.746c7.487,11.953,3.863,27.719-8.088,35.205c-11.955,7.488-27.715,3.864-35.202-8.09
					c-7.489-11.959-3.866-27.71,8.09-35.199C2901.126,1502.175,2916.887,1505.788,2924.375,1517.746z"/>
				<path d="M2903.701,1545.493c1.627,2.598,0.837,6.018-1.76,7.643c-2.598,1.628-6.02,0.847-7.646-1.751
					c-1.631-2.599-0.842-6.024,1.758-7.652C2898.648,1542.107,2902.073,1542.893,2903.701,1545.493z"/>
			</g>
			<g>
				<path fill="#FFFFFF" d="M2869.042,1554.099c7.488,11.954,3.868,27.714-8.09,35.204c-11.955,7.487-27.715,3.866-35.203-8.088
					c-7.487-11.954-3.865-27.711,8.09-35.199C2845.798,1538.526,2861.556,1542.144,2869.042,1554.099z"/>
				<path d="M2855.954,1575.396c1.627,2.6,0.841,6.02-1.757,7.647c-2.599,1.626-6.018,0.842-7.646-1.757
					c-1.626-2.596-0.845-6.023,1.755-7.649C2850.901,1572.01,2854.327,1572.801,2855.954,1575.396z"/>
			</g>
		</g>
		<g>
			<g>
				<path fill="#F16C4F" d="M2942.525,1577.263c7.2,11.497,7.685,24.182,1.084,28.317l-33.714,21.117
					c-6.602,4.135-17.803-1.839-25.007-13.335l0,0c-7.2-11.498-7.684-24.183-1.084-28.318l33.715-21.117
					C2924.123,1559.791,2935.322,1565.765,2942.525,1577.263L2942.525,1577.263z"/>
			</g>
			<path fill="#E9262A" d="M2932.338,1583.912c3.965,6.328,3.625,13.691-0.758,16.437l-22.386,14.022
				c-4.386,2.745-11.157-0.163-15.118-6.491l0,0c-3.965-6.329-3.627-13.692,0.757-16.438l22.384-14.021
				C2921.602,1574.676,2928.375,1577.583,2932.338,1583.912L2932.338,1583.912z"/>
		</g>
	</g>
	<g>
		<path fill="#F79521" d="M2982.734,1579.767c8.43-1.655,25.321,4.956,26.676,18.139c2.76,26.848-26.235,91.368-63.24,124.636
			l-11.55-12.852c58.525-52.612,46.549-119.989,46.549-119.989L2982.734,1579.767z"/>
		
			<ellipse transform="matrix(-0.6686 -0.7437 0.7437 -0.6686 3633.4187 5049.7813)" fill="#FDC888" cx="2942.03" cy="1715.2" rx="11.521" ry="12.811"/>
	</g>
</g>
<g id="Death">
	<g>
		<g>
			<path fill="#808285" d="M844.479,2342.447c0,0,98.005-417.788,96.309-457.944l28.991,6.097c0,0-105.642,419.214-95.28,453.042"/>
			<path fill="#BCBEC0" d="M967.228,1902.727c0,0,175.438,35.991,155.398,131.276c0,0,1.594-51.719-163.647-92.062"/>
		</g>
		<path fill="#F1F2F2" d="M1102.898,1982.284c0,0-32.037-39.341-56.314-40.843
			C1037.65,1940.888,1102.898,1982.284,1102.898,1982.284z"/>
	</g>
	<g>
		<path fill="#414042" d="M795.783,2372.225c0,0,92.058-296.237,20.064-372.952c-62.833-66.954-157.561-30.686-183.526-15.343
			c-25.965,15.343-29.541,24.866-33.047,50.75c-12.392,91.468,18.693,296.956,34.227,341.088c0,0,10.901-5.988,21.08-5.102
			c10.18,0.885-2.213,4.889-6.639,5.102c-4.426,0.211,40.718,8.178,39.391-9.973c-1.328-18.143,23.458,3.543,18.589,7.086
			c-4.87,3.539,21.687-8.852,26.997-5.313c5.312,3.543,19.917,6.738,12.835,8.236c-7.081,1.5,27.522,8.275,14.163-13.992
			C753.279,2350.75,795.783,2372.225,795.783,2372.225z"/>
		<g>
			<path d="M621.414,2103.75c0,39.51,44.98,57.856,44.98,57.856l0.449,34.497l34.079,0.098l-0.531-33.937l6.727,0.47l1.328,33.369
				h30.981l1.327-33.812h7.524l1.327,33.812l32.752-1.061c0,0-0.982-38.896,1.147-39.348c25.26-5.353,40.613-23.057,40.613-51.945
				c0-66.175-45.377-109.198-101.352-109.198C666.791,1994.552,621.414,2037.575,621.414,2103.75z"/>
			<g>
				<path fill="#FFFFFF" d="M653.1,2069.379c0,17.208,13.95,23.528,31.159,23.528c17.208,0,34.806-5.087,31.159-23.528
					c-3.336-16.882-13.951-31.159-31.157-31.159C667.05,2038.22,653.1,2052.17,653.1,2069.379z"/>
				<path fill="#FFFFFF" d="M792.435,2069.379c0,17.208-13.95,23.528-31.16,23.528c-17.208,0-34.807-5.087-31.16-23.528
					c3.338-16.882,13.95-31.159,31.159-31.159S792.435,2052.17,792.435,2069.379z"/>
			</g>
		</g>
		<path d="M809.484,2196.364c0,0,81.387,39.837,87.691,42.937c6.305,3.1-1.719,44.421-10.022,40.352
			c-8.304-4.07-77.669-38.077-77.669-38.077"/>
		<path fill="#414042" d="M731.622,1982.284c0,0-9.653,27.605-21.806,29.194c-2.48,0.325-15.22,9.892-22.984,19.805
			c0,0,6.463,3.7,1.354,11.836c0,0-6.277-3.959-6.957,10.687c-0.189,4.084-5.314-7.606-7.688-4.043
			c-4.926,7.391-11.323,4.658-14.277,15.801c-1.459,5.506-3.797,4.131-10.83,8.056c0,0-3.212,4.639-3.903,7.394
			c-12.018,47.916-37.251,83.869-34.75,88.253C618.403,2184.385,565.712,1966.27,731.622,1982.284z"/>
	</g>
</g>
<g id="Thorns">
	<g>
		<polyline points="521.322,2420 587.322,2113 617.322,2439 		"/>
		<polyline points="631.322,2399 659.322,2287 673.322,2383 		"/>
		<polyline points="723.018,2399 745.322,2314.5 745.322,2413 		"/>
		<polyline points="662.322,2439 708.322,2211 699.156,2420 		"/>
		<polyline points="786.373,2419 773.106,2220 761.106,2430 		"/>
		<polyline points="782.531,2439 872.114,2211 840.114,2430 		"/>
		<polyline points="860.322,2399 888.322,2287 902.322,2383 		"/>
		<polyline points="891.322,2439 937.322,2211 928.156,2420 		"/>
		<polyline points="983.373,2437 970.106,2238 958.106,2448 		"/>
		<polyline points="983.373,2406 1005.678,2321.5 1005.678,2420 		"/>
		<polyline points="1026.678,2455 1054.678,2343 1068.678,2439 		"/>
		<polyline points="1100.386,2437 1087.119,2238 1075.119,2448 		"/>
		<polyline points="1096.544,2457 1186.126,2229 1154.126,2448 		"/>
		<polyline points="1174.335,2417 1202.335,2305 1216.335,2401 		"/>
		<polyline points="1205.335,2457 1251.335,2229 1242.169,2438 		"/>
		<polyline points="444.585,2415.5 431.318,2216.5 419.318,2426.5 		"/>
		<polyline points="440.743,2435.5 530.325,2207.5 498.325,2426.5 		"/>
	</g>
	<g>
		<polyline points="-326.247,2411 -260.247,2104 -230.247,2430 		"/>
		<polyline points="-216.247,2390 -188.247,2278 -174.247,2374 		"/>
		<polyline points="-124.551,2390 -102.247,2305.5 -102.247,2404 		"/>
		<polyline points="-185.247,2430 -139.247,2202 -148.413,2411 		"/>
		<polyline points="-61.196,2410 -74.462,2211 -86.462,2421 		"/>
		<polyline points="-65.038,2430 24.544,2202 -7.456,2421 		"/>
		<polyline points="12.753,2390 40.753,2278 54.753,2374 		"/>
		<polyline points="43.753,2430 89.753,2202 80.587,2411 		"/>
		<polyline points="135.804,2428 122.538,2229 110.538,2439 		"/>
		<polyline points="135.804,2397 158.109,2312.5 158.109,2411 		"/>
		<polyline points="179.109,2446 207.109,2334 221.109,2430 		"/>
		<polyline points="252.817,2428 239.55,2229 227.55,2439 		"/>
		<polyline points="248.975,2448 338.557,2220 306.557,2439 		"/>
		<polyline points="326.766,2408 354.766,2296 368.766,2392 		"/>
		<polyline points="357.766,2448 403.766,2220 394.6,2429 		"/>
		<polyline points="-402.984,2406.5 -416.25,2207.5 -428.25,2417.5 		"/>
		<polyline points="-406.826,2426.5 -317.244,2198.5 -349.244,2417.5 		"/>
	</g>
</g>
<g id="_x34_04" opacity="0">
	<g>
		<circle fill="#FFF200" cx="1112.267" cy="485.148" r="181.284"/>
		<g>
			<g>
				<defs>
					<rect id="SVGID_1_" x="904.017" y="298.223" width="374.615" height="384.451"/>
				</defs>
				<clipPath id="SVGID_2_">
					<use xlink:href="#SVGID_1_"  overflow="visible"/>
				</clipPath>
				<g clip-path="url(#SVGID_2_)">
					<defs>
						<rect id="SVGID_3_" x="904.017" y="298.223" width="374.615" height="384.451"/>
					</defs>
					<clipPath id="SVGID_4_">
						<use xlink:href="#SVGID_3_"  overflow="visible"/>
					</clipPath>
					<path clip-path="url(#SVGID_4_)" d="M1270.435,489.994c0,99.373-80.558,179.93-179.93,179.93
						c-99.373,0-179.93-80.557-179.93-179.93s80.557-179.93,179.93-179.93C1189.877,310.064,1270.435,390.621,1270.435,489.994"/>
					<path clip-path="url(#SVGID_4_)" fill="#FFFFFF" d="M956.729,471.267c7.081-14.594,20.338-26.739,39.785-36.439
						c7.698-3.84,17.116-8.347,28.256-13.524c11.145-5.176,17.877-8.349,20.205-9.51l21.729-10.833
						c12.32,28.508,27.174,60.184,44.547,95.026c20.206,40.514,38.24,74.773,54.104,102.781l-29.17,14.547
						c-13.985-32.104-26.489-59.196-37.499-81.276c-2.634,1.567-5.826,3.281-9.57,5.15c-29.574,14.749-55.977,20.775-79.21,18.066
						c-23.228-2.706-40.603-15.605-52.121-38.699C950.009,500.962,949.657,485.864,956.729,471.267 M1076.375,519.262
						c5.165-2.575,9.476-4.849,12.915-6.821c-17.426-34.943-29.901-60.844-37.428-77.708c-11.589,3.884-21.746,7.999-30.457,12.343
						c-35.552,17.73-46.836,39.611-33.854,65.642C1001.09,539.86,1030.696,542.042,1076.375,519.262"/>
					<path clip-path="url(#SVGID_4_)" fill="none" stroke="#FFFFFF" stroke-width="10" stroke-miterlimit="10" d="M956.729,471.267
						c7.081-14.594,20.338-26.739,39.785-36.439c7.698-3.84,17.116-8.347,28.256-13.524c11.145-5.176,17.877-8.349,20.205-9.51
						l21.729-10.833c12.32,28.508,27.174,60.184,44.547,95.026c20.206,40.514,38.24,74.773,54.104,102.781l-29.17,14.547
						c-13.985-32.104-26.489-59.196-37.499-81.276c-2.634,1.567-5.826,3.281-9.57,5.15c-29.574,14.749-55.977,20.775-79.21,18.066
						c-23.228-2.706-40.603-15.605-52.121-38.699C950.009,500.962,949.657,485.864,956.729,471.267z M1076.375,519.262
						c5.165-2.575,9.476-4.849,12.915-6.821c-17.426-34.943-29.901-60.844-37.428-77.708c-11.589,3.884-21.746,7.999-30.457,12.343
						c-35.552,17.73-46.836,39.611-33.854,65.642C1001.09,539.86,1030.696,542.042,1076.375,519.262z"/>
					<path clip-path="url(#SVGID_4_)" fill="#FFFFFF" d="M1181.04,383.065l-46.532,128.04l76.643,1.52l5.065,22.377l-98.546-2.368
						c-14.037,39.502-21.053,63.325-21.053,71.475h-34.296c0-4.187,14.604-40.378,43.802-108.57
						c29.202-68.19,43.801-105.684,43.801-112.474h15.401H1181.04z"/>
					<path clip-path="url(#SVGID_4_)" fill="none" stroke="#FFFFFF" stroke-width="10" stroke-miterlimit="10" d="M1181.04,383.065
						l-46.532,128.04l76.643,1.52l5.065,22.377l-98.546-2.368c-14.037,39.502-21.053,63.325-21.053,71.475h-34.296
						c0-4.187,14.604-40.378,43.802-108.57c29.202-68.19,43.801-105.684,43.801-112.474h15.401H1181.04z"/>
				</g>
			</g>
		</g>
		
			<line fill="#FFFFFF" stroke="#FFFFFF" stroke-width="13" stroke-miterlimit="10" x1="1391.542" y1="426.899" x2="1337.105" y2="442.795"/>
		
			<line fill="#FFFFFF" stroke="#FFFFFF" stroke-width="13" stroke-miterlimit="10" x1="1293.551" y1="275.871" x2="1262.747" y2="314.568"/>
		
			<line fill="#FFFFFF" stroke="#FFFFFF" stroke-width="13" stroke-miterlimit="10" x1="1367.194" y1="605.326" x2="1322.763" y2="579.926"/>
	</g>
	<text transform="matrix(1 0 0 1 499.5342 666.4326)" font-family="'NuevaStd-Bold'" font-size="600">4</text>
	<text transform="matrix(1 0 0 1 1391.542 679.6699)" font-family="'NuevaStd-Bold'" font-size="600">4</text>
</g>
</svg>
