<?xml version="1.0" encoding="utf-8"?>
<!-- Generator: Adobe Illustrator 16.0.0, SVG Export Plug-In . SVG Version: 6.00 Build 0)  -->
<!DOCTYPE svg PUBLIC "-//W3C//DTD SVG 1.1//EN" "http://www.w3.org/Graphics/SVG/1.1/DTD/svg11.dtd">
<svg version="1.1" id="Layer_1" xmlns="http://www.w3.org/2000/svg" xmlns:xlink="http://www.w3.org/1999/xlink" x="0px" y="0px"
	 width="5878.045px" height="1158.116px" viewBox="0 0 5878.045 1158.116" enable-background="new 0 0 5878.045 1158.116"
	 xml:space="preserve">
<rect y="-625.73" opacity="0" fill="#DCF1F4" width="5912" height="1777"/>
<g>
	<g>
		<g>
			<path fill="#C9EC52" d="M5267.006,1161.176c0-142.209-8.725-724.489,566.447-724.489c530.714,0,530.714,470.163,530.714,724.489"
				/>
			<path fill="#83A93C" d="M5267.006,1161.176c0-142.209-0.479-684,526.18-709.128C6340.527,425.933,6403,910.23,6403,1161.176"/>
		</g>
		<path fill="#F4DC76" d="M5472.439,640.549l29.032,57.776c0,0,782.697,210.873,587.432-197.141c0,0-24.07-14.623-70.841-26.191
			C6018.063,474.992,6334.133,811.733,5472.439,640.549z"/>
	</g>
	<g>
		<path fill="#C9EC52" d="M3885.752,1161.176c0-142.209-8.725-724.489,566.447-724.489c530.713,0,530.713,470.163,530.713,724.489"
			/>
		<path fill="#83A93C" d="M3885.752,1161.176c0-142.209-0.48-684,526.179-709.128c547.343-26.115,609.815,458.182,609.815,709.128"
			/>
	</g>
	<g>
		<g>
			<path fill="#C9EC52" d="M4730.425,867.607c0-145.797,120.415-430.764,372.103-430.764c251.688,0,431.249,170.019,431.249,430.764
				"/>
			<path fill="#83A93C" d="M4731.654,878.002c0-145.797,120.416-430.764,372.104-430.764c251.686,0,431.248,173.484,431.248,430.764
				"/>
		</g>
		<path fill="#F4DC76" d="M5102.309,878.27h100.053c0,0,98.754-167.755-199.581-414.293c0,0-19.529,6.542-34.728,14.45
			C4968.053,478.427,5190.667,606.27,5102.309,878.27z"/>
	</g>
	<g>
		<path fill="#C9EC52" d="M5027.986,1152.174c0-145.797,127.221-430.764,393.135-430.764c265.915,0,455.625,170.019,455.625,430.764
			"/>
		<path fill="#83A93C" d="M5029.285,1161.27c0-145.797,127.222-430.764,393.136-430.764c265.913,0,455.624,173.484,455.624,430.764"
			/>
	</g>
	<g>
		<g>
			<path fill="#C9EC52" d="M4452.355,1150.875c0-145.797,127.221-430.764,393.135-430.764
				c265.915,0,455.625,170.019,455.625,430.764"/>
			<path fill="#83A93C" d="M4453.654,1161.27c0-145.797,127.222-430.764,393.135-430.764c265.914,0,455.625,173.484,455.625,430.764
				"/>
		</g>
		<path fill="#F4DC76" d="M4811.395,1161.27c0,0-125.462-140.745,108.555-426.201c0,0-23.811-3.814-43.214-3.814
			c0,0-180.331,146.654-234.901,429.921"/>
	</g>
	<g>
		<circle fill="#A1C729" cx="4452.094" cy="311.176" r="63.86"/>
		<path fill="#C9E84E" d="M4454.719,251.107l-4.665,105.567l-54.237-53.955C4395.816,302.719,4395.816,256.938,4454.719,251.107z"/>
		<path fill="#89A621" d="M4454.719,268.894c0,0,53.654,2.514,53.654,44.906c0,27.41-23.328,54.237-53.654,58.903"/>
		<g>
			<polygon fill="#775506" points="4445.787,459.554 4455,251.107 4455,459.598 			"/>
			<polygon fill="#775506" points="4451,318.213 4404.352,281.27 4403.105,281.27 4451,324.88 			"/>
			<polygon fill="#775506" points="4454,335.378 4508,295.721 4508,297.762 4454,341.21 			"/>
			<polygon fill="#775506" points="4450,359.62 4402.603,320.27 4401.357,320.27 4450,366.287 			"/>
		</g>
	</g>
	<g>
		<circle fill="#A1C729" cx="6082.208" cy="352.35" r="66.157"/>
		<path fill="#C9E84E" d="M6093.913,291.17l-20.629,107.513l-47.496-63.447C6025.788,335.236,6032.659,288.307,6093.913,291.17z"/>
		<path fill="#89A621" d="M6091.243,309.403c0,0,54.622,10.629,48.258,54.084c-4.111,28.098-32.052,52.095-63.839,52.326"/>
		<g>
			<polygon fill="#775506" points="6053.619,503.522 6094.349,291.234 6063.057,504.951 			"/>
			<polygon fill="#775506" points="6081.251,359.579 6037.868,313.76 6036.59,313.572 6080.251,366.414 			"/>
			<polygon fill="#775506" points="6080.692,377.469 6142.116,344.94 6141.811,347.032 6079.815,383.448 			"/>
			<polygon fill="#775506" points="6073.02,401.728 6029.874,355.859 6028.596,355.672 6072.018,408.563 			"/>
		</g>
	</g>
	<g>
		<circle fill="#A1C729" cx="4574.986" cy="699.328" r="69.974"/>
		<path fill="#C9E84E" d="M4551.182,637.896l41.783,107.986l-78.174-30.269C4514.791,715.613,4494.641,669.674,4551.182,637.896z"/>
		<path fill="#89A621" d="M4559.01,655.745c0,0,54.945-21.094,73.605,21.444c12.064,27.506,0.465,64.694-27.914,82.724"/>
		<g>
			<polygon fill="#775506" points="4634.297,850.852 4551.792,637.628 4643.561,846.841 			"/>
			<polygon fill="#775506" points="4577.822,706.505 4513.658,689.745 4512.408,690.293 4580.757,713.195 			"/>
			<polygon fill="#775506" points="4587.482,722.806 4624.729,659.018 4625.626,661.066 4590.049,728.659 			"/>
			<polygon fill="#775506" points="4594.646,748.668 4529.744,731.189 4528.494,731.738 4597.58,755.361 			"/>
		</g>
	</g>
	<g>
		<circle fill="#A1C729" cx="4728.202" cy="617.675" r="69.974"/>
		<path fill="#C9E84E" d="M4724.77,551.881l5.973,115.633l-64.811-53.166C4665.932,614.349,4661.134,564.414,4724.77,551.881z"/>
		<path fill="#89A621" d="M4726.633,571.282c0,0,58.786-2.882,63.229,43.356c2.871,29.899-19.762,61.604-52.35,69.87"/>
		<g>
			<polygon fill="#775506" points="4737.229,780.142 4725.434,551.817 4747.282,779.225 			"/>
			<polygon fill="#775506" points="4728.654,625.378 4672.932,589.419 4671.573,589.549 4729.353,632.65 			"/>
			<polygon fill="#775506" points="4732.74,643.879 4788.043,594.913 4788.256,597.139 4733.352,650.242 			"/>
			<polygon fill="#775506" points="4731.469,670.687 4675.271,633.815 4673.913,633.946 4732.168,677.961 			"/>
		</g>
	</g>
	<g>
		<circle fill="#A1C729" cx="5220.785" cy="630.46" r="69.974"/>
		<path fill="#C9E84E" d="M5196.979,569.028l41.783,107.986l-78.173-30.269C5160.59,646.746,5140.439,600.806,5196.979,569.028z"/>
		<path fill="#89A621" d="M5204.808,586.877c0,0,54.946-21.094,73.605,21.444c12.064,27.506,0.465,64.694-27.913,82.724"/>
		<g>
			<polygon fill="#775506" points="5280.095,781.984 5197.59,568.76 5289.358,777.973 			"/>
			<polygon fill="#775506" points="5223.62,637.637 5159.456,620.877 5158.206,621.425 5226.555,644.328 			"/>
			<polygon fill="#775506" points="5233.28,653.938 5270.526,590.149 5271.424,592.198 5235.847,659.791 			"/>
			<polygon fill="#775506" points="5240.443,679.801 5175.542,662.322 5174.292,662.871 5243.379,686.493 			"/>
		</g>
	</g>
	<g>
		<circle fill="#A1C729" cx="5420.374" cy="659.072" r="69.974"/>
		<path fill="#C9E84E" d="M5425.608,593.398l-9.259,115.417l-57.271-61.214C5359.078,647.601,5360.878,597.468,5425.608,593.398z"/>
		<path fill="#89A621" d="M5424.909,612.875c0,0,58.654,4.861,56.989,51.282c-1.079,30.017-27.679,58.477-61.069,62.393"/>
		<g>
			<polygon fill="#775506" points="5407.994,821.319 5426.275,593.421 5418.081,821.73 			"/>
			<polygon fill="#775506" points="5419.811,666.769 5369.291,623.807 5367.928,623.757 5419.548,674.07 			"/>
			<polygon fill="#775506" points="5421.433,685.647 5482.685,644.364 5482.604,646.599 5421.203,692.034 			"/>
			<polygon fill="#775506" points="5416.654,712.056 5365.783,668.125 5364.419,668.076 5416.392,719.357 			"/>
		</g>
	</g>
	<g>
		<circle fill="#A1C729" cx="5746.132" cy="703.034" r="69.975"/>
		<path fill="#C9E84E" d="M5774.584,643.611l-50.056,104.409l-31.494-77.688C5693.034,670.332,5712.703,624.183,5774.584,643.611z"
			/>
		<path fill="#89A621" d="M5766.942,661.542c0,0,53.003,25.583,34.793,68.315c-11.778,27.631-46.817,44.651-79.39,36.325"/>
		<g>
			<polygon fill="#775506" points="5676.36,850.034 5775.198,643.873 5685.626,854.038 			"/>
			<polygon fill="#775506" points="5742.847,710.016 5711.106,651.788 5709.851,651.251 5739.98,716.736 			"/>
			<polygon fill="#775506" points="5737.586,728.22 5809.572,711.664 5808.694,713.721 5735.078,734.097 			"/>
			<polygon fill="#775506" points="5723.648,751.154 5691.929,691.895 5690.673,691.36 5720.783,757.875 			"/>
		</g>
	</g>
	<g>
		<circle fill="#A1C729" cx="4970.896" cy="326.69" r="66.158"/>
		<path fill="#C9E84E" d="M4961.806,265.066l15.919,108.311l-65.736-44.271C4911.988,329.105,4903.024,282.531,4961.806,265.066z"/>
		<path fill="#89A621" d="M4965.288,283.162c0,0,55.075-7.948,63.374,35.18c5.369,27.885-13.113,59.743-43.051,70.427"/>
		<g>
			<polygon fill="#775506" points="4993.676,478.845 4962.238,264.983 5003.057,477.086 			"/>
			<polygon fill="#775506" points="4972.373,333.83 4916.323,304.85 4915.055,305.093 4973.68,340.613 			"/>
			<polygon fill="#775506" points="4977.736,350.907 5025.025,299.968 5025.425,302.044 4978.877,356.841 			"/>
			<polygon fill="#775506" points="4978.478,376.339 4922.636,347.233 4921.367,347.478 4979.783,383.123 			"/>
		</g>
	</g>
</g>
<g>
	<g>
		<g>
			<path fill="#C9EC52" d="M3058.006,1162.176c0-142.209-8.725-724.489,566.447-724.489c530.714,0,569.547,470.163,569.547,724.489"
				/>
			<path fill="#83A93C" d="M3058.006,1162.176c0-142.209-0.479-684,526.18-709.128C4131.527,426.933,4194,911.23,4194,1162.176"/>
		</g>
		<path fill="#F4DC76" d="M3263.439,641.549l29.032,57.776c0,0,782.697,210.873,587.432-197.141c0,0-24.07-14.623-70.841-26.191
			C3809.063,475.992,4125.133,812.733,3263.439,641.549z"/>
	</g>
	<g>
		<path fill="#C9EC52" d="M1676.752,1162.176c0-142.209-8.725-724.489,566.447-724.489c530.713,0,530.713,470.163,530.713,724.489"
			/>
		<path fill="#83A93C" d="M1676.752,1162.176c0-142.209-0.48-684,526.179-709.128c547.343-26.115,609.815,458.182,609.815,709.128"
			/>
	</g>
	<g>
		<g>
			<path fill="#C9EC52" d="M2521.425,868.607c0-145.797,120.415-430.764,372.102-430.764c251.689,0,431.25,170.019,431.25,430.764"
				/>
			<path fill="#83A93C" d="M2522.654,879.002c0-145.797,120.416-430.764,372.103-430.764c251.686,0,431.249,173.484,431.249,430.764
				"/>
		</g>
		<path fill="#F4DC76" d="M2893.308,879.27h100.053c0,0,98.754-167.755-199.581-414.293c0,0-19.529,6.542-34.727,14.45
			C2759.053,479.427,2981.667,607.27,2893.308,879.27z"/>
	</g>
	<g>
		<path fill="#C9EC52" d="M2818.986,1153.174c0-145.797,127.221-430.764,393.135-430.764c265.915,0,455.625,170.019,455.625,430.764
			"/>
		<path fill="#83A93C" d="M2820.285,1162.27c0-145.797,127.222-430.764,393.136-430.764c265.913,0,455.624,173.484,455.624,430.764"
			/>
	</g>
	<g>
		<g>
			<path fill="#C9EC52" d="M2243.355,1151.875c0-145.797,127.222-430.764,393.135-430.764
				c265.915,0,455.625,170.019,455.625,430.764"/>
			<path fill="#83A93C" d="M2244.654,1162.27c0-145.797,127.222-430.764,393.135-430.764s455.625,173.484,455.625,430.764"/>
		</g>
		<path fill="#F4DC76" d="M2602.395,1162.27c0,0-125.462-140.745,108.555-426.201c0,0-23.812-3.814-43.214-3.814
			c0,0-180.331,146.654-234.902,429.921"/>
	</g>
	<g>
		<circle fill="#A1C729" cx="2243.094" cy="312.176" r="63.86"/>
		<path fill="#C9E84E" d="M2245.719,252.107l-4.665,105.567l-54.238-53.955C2186.816,303.719,2186.816,257.938,2245.719,252.107z"/>
		<path fill="#89A621" d="M2245.719,269.894c0,0,53.654,2.514,53.654,44.906c0,27.41-23.328,54.237-53.654,58.903"/>
		<g>
			<polygon fill="#775506" points="2236.788,460.554 2246,252.107 2246,460.598 			"/>
			<polygon fill="#775506" points="2242,319.213 2195.352,282.27 2194.106,282.27 2242,325.88 			"/>
			<polygon fill="#775506" points="2245,336.378 2299,296.721 2299,298.762 2245,342.21 			"/>
			<polygon fill="#775506" points="2241,360.62 2193.603,321.27 2192.357,321.27 2241,367.287 			"/>
		</g>
	</g>
	<g>
		<circle fill="#A1C729" cx="3873.208" cy="353.35" r="66.157"/>
		<path fill="#C9E84E" d="M3884.913,292.17l-20.629,107.513l-47.496-63.447C3816.788,336.236,3823.659,289.307,3884.913,292.17z"/>
		<path fill="#89A621" d="M3882.243,310.403c0,0,54.622,10.629,48.258,54.084c-4.111,28.098-32.052,52.095-63.839,52.326"/>
		<g>
			<polygon fill="#775506" points="3844.619,504.522 3885.349,292.234 3854.057,505.951 			"/>
			<polygon fill="#775506" points="3872.251,360.579 3828.868,314.76 3827.59,314.572 3871.251,367.414 			"/>
			<polygon fill="#775506" points="3871.692,378.469 3933.116,345.94 3932.811,348.032 3870.815,384.448 			"/>
			<polygon fill="#775506" points="3864.02,402.728 3820.874,356.859 3819.596,356.672 3863.018,409.563 			"/>
		</g>
	</g>
	<g>
		<circle fill="#A1C729" cx="2365.987" cy="700.328" r="69.974"/>
		<path fill="#C9E84E" d="M2342.182,638.896l41.783,107.986l-78.173-30.269C2305.792,716.613,2285.641,670.674,2342.182,638.896z"/>
		<path fill="#89A621" d="M2350.01,656.745c0,0,54.946-21.094,73.605,21.444c12.064,27.506,0.464,64.694-27.914,82.724"/>
		<g>
			<polygon fill="#775506" points="2425.297,851.852 2342.792,638.628 2434.561,847.841 			"/>
			<polygon fill="#775506" points="2368.822,707.505 2304.658,690.745 2303.408,691.293 2371.757,714.195 			"/>
			<polygon fill="#775506" points="2378.482,723.806 2415.728,660.018 2416.626,662.066 2381.048,729.659 			"/>
			<polygon fill="#775506" points="2385.646,749.668 2320.744,732.189 2319.494,732.738 2388.581,756.361 			"/>
		</g>
	</g>
	<g>
		<circle fill="#A1C729" cx="2519.202" cy="618.675" r="69.974"/>
		<path fill="#C9E84E" d="M2515.77,552.881l5.973,115.633l-64.812-53.166C2456.931,615.349,2452.134,565.414,2515.77,552.881z"/>
		<path fill="#89A621" d="M2517.633,572.282c0,0,58.786-2.882,63.229,43.356c2.872,29.899-19.761,61.604-52.35,69.87"/>
		<g>
			<polygon fill="#775506" points="2528.229,781.142 2516.434,552.817 2538.282,780.225 			"/>
			<polygon fill="#775506" points="2519.654,626.378 2463.932,590.419 2462.573,590.549 2520.353,633.65 			"/>
			<polygon fill="#775506" points="2523.741,644.879 2579.043,595.913 2579.256,598.139 2524.351,651.242 			"/>
			<polygon fill="#775506" points="2522.469,671.687 2466.271,634.815 2464.913,634.946 2523.168,678.961 			"/>
		</g>
	</g>
	<g>
		<circle fill="#A1C729" cx="3011.785" cy="631.46" r="69.974"/>
		<path fill="#C9E84E" d="M2987.979,570.028l41.783,107.986l-78.173-30.269C2951.59,647.746,2931.439,601.806,2987.979,570.028z"/>
		<path fill="#89A621" d="M2995.808,587.877c0,0,54.946-21.094,73.605,21.444c12.064,27.506,0.465,64.694-27.913,82.724"/>
		<g>
			<polygon fill="#775506" points="3071.095,782.984 2988.59,569.76 3080.358,778.973 			"/>
			<polygon fill="#775506" points="3014.62,638.637 2950.456,621.877 2949.206,622.425 3017.555,645.328 			"/>
			<polygon fill="#775506" points="3024.28,654.938 3061.526,591.149 3062.424,593.198 3026.847,660.791 			"/>
			<polygon fill="#775506" points="3031.443,680.801 2966.542,663.322 2965.292,663.871 3034.379,687.493 			"/>
		</g>
	</g>
	<g>
		<circle fill="#A1C729" cx="3211.374" cy="660.072" r="69.974"/>
		<path fill="#C9E84E" d="M3216.608,594.398l-9.259,115.417l-57.271-61.214C3150.078,648.601,3151.878,598.468,3216.608,594.398z"/>
		<path fill="#89A621" d="M3215.909,613.875c0,0,58.654,4.861,56.989,51.282c-1.079,30.017-27.679,58.477-61.069,62.393"/>
		<g>
			<polygon fill="#775506" points="3198.994,822.319 3217.275,594.421 3209.081,822.73 			"/>
			<polygon fill="#775506" points="3210.811,667.769 3160.291,624.807 3158.928,624.757 3210.548,675.07 			"/>
			<polygon fill="#775506" points="3212.433,686.647 3273.685,645.364 3273.604,647.599 3212.203,693.034 			"/>
			<polygon fill="#775506" points="3207.654,713.056 3156.783,669.125 3155.419,669.076 3207.392,720.357 			"/>
		</g>
	</g>
	<g>
		<circle fill="#A1C729" cx="3537.132" cy="704.034" r="69.975"/>
		<path fill="#C9E84E" d="M3565.584,644.611l-50.056,104.409l-31.494-77.688C3484.034,671.332,3503.703,625.183,3565.584,644.611z"
			/>
		<path fill="#89A621" d="M3557.942,662.542c0,0,53.003,25.583,34.793,68.315c-11.778,27.631-46.817,44.651-79.39,36.325"/>
		<g>
			<polygon fill="#775506" points="3467.36,851.034 3566.198,644.873 3476.626,855.038 			"/>
			<polygon fill="#775506" points="3533.847,711.016 3502.106,652.788 3500.851,652.251 3530.98,717.736 			"/>
			<polygon fill="#775506" points="3528.586,729.22 3600.572,712.664 3599.694,714.721 3526.078,735.097 			"/>
			<polygon fill="#775506" points="3514.648,752.154 3482.929,692.895 3481.673,692.36 3511.783,758.875 			"/>
		</g>
	</g>
	<g>
		<circle fill="#A1C729" cx="2761.896" cy="327.69" r="66.158"/>
		<path fill="#C9E84E" d="M2752.806,266.066l15.919,108.311l-65.737-44.271C2702.988,330.105,2694.024,283.531,2752.806,266.066z"/>
		<path fill="#89A621" d="M2756.288,284.162c0,0,55.075-7.948,63.374,35.18c5.369,27.885-13.113,59.743-43.051,70.427"/>
		<g>
			<polygon fill="#775506" points="2784.676,479.845 2753.238,265.983 2794.057,478.086 			"/>
			<polygon fill="#775506" points="2763.373,334.83 2707.323,305.85 2706.055,306.093 2764.679,341.613 			"/>
			<polygon fill="#775506" points="2768.736,351.907 2816.025,300.968 2816.425,303.044 2769.876,357.841 			"/>
			<polygon fill="#775506" points="2769.478,377.339 2713.636,348.233 2712.368,348.478 2770.783,384.123 			"/>
		</g>
	</g>
</g>
<g>
	<g>
		<path fill="#FBAD3E" d="M2796.909,98.597c0,0-28.368-17.066-26.932,10.643c-0.135,1.987-1.42,2.469-2.913,2.687
			c-4.826,0.699-12.593,1.922-16.259,7.117c-5.068,7.18-3.66,19.909,11.962,31.028L2796.909,98.597z"/>
		<path fill="#FBAD3E" d="M2796.909,98.597c0,0,26.484,19.205,0.48,28.836c-1.774,0.911-1.704,2.282-1.317,3.741
			c1.265,4.709,3.212,12.332-0.109,17.756c-4.586,7.493-17.417,10.674-33.801,0.71L2796.909,98.597z"/>
	</g>
	<circle fill="#FFCA65" cx="2785.659" cy="115.774" r="9.018"/>
	<polygon fill="#ACACAC" points="2785.497,106.752 2809.493,72.968 2817.761,78.869 2794.103,112.611 	"/>
	<g>
		<g>
			<path fill="#FBAD3E" d="M2809.493,72.968l1.495-1.673c0,0-3.253-3.103-2.425-3.893c1.991-1.898,4.582,0.869,4.582,0.869
				l2.304-3.232c0,0-3.668-1.771-2.221-3.713c1.453-1.942,4.577,0.833,4.577,0.833s0.979-5.849,6.597-0.927l-10.682,14.752
				L2809.493,72.968z"/>
			<path fill="#FBAD3E" d="M2817.432,79.089l1.091-1.959c0,0,3.996,2.071,4.472,1.029c1.145-2.501-2.317-4.055-2.317-4.055
				l2.31-3.229c0,0,2.867,2.896,4.229,0.89c1.365-2.002-2.277-4.058-2.277-4.058s5.21-2.827-1.27-6.54l-10.465,14.904
				L2817.432,79.089z"/>
		</g>
	</g>
	<g>
		<g>
			<path fill="#7B7B7B" d="M2776.53,126.449l0.816,0.889l-2.926,4.3l-4.139-3.249c0,0-2.386-6.73,4.177-3.109l44.801-62.841
				c0,0,3.533-1.858,1.402,1.909L2776.53,126.449z"/>
			<path fill="#7B7B7B" d="M2778.225,127.665l-1.104-0.487l-3.11,4.171l4.417,2.856c0,0,7.138,0.063,1.577-4.966l44.811-62.836
				c0,0,0.608-3.942-2.258-0.7L2778.225,127.665z"/>
		</g>
	</g>
</g>
<g>
	
		<line fill="#182328" stroke="#182328" stroke-width="8" stroke-miterlimit="10" x1="2760.447" y1="168.667" x2="2753.852" y2="222.51"/>
	
		<line fill="none" stroke="#182328" stroke-width="8" stroke-miterlimit="10" x1="2754.149" y1="220.857" x2="2781.009" y2="275.258"/>
	
		<line fill="none" stroke="#182328" stroke-width="8" stroke-miterlimit="10" x1="2756.014" y1="203.803" x2="2716.786" y2="283.962"/>
	<g>
		<path fill="#182328" d="M2816.913,112.788l-20.977-6.494c0.752,7.418,1.043,13.012,0.871,16.78
			c-0.537,11.808,0.521,20.746-7.25,27.449c-4.337,3.74-9.838,6.591-17.47,7.619c-23.76,3.2-55.851,12.57-29.378-71.042
			c13.972-44.135,5.531-54.047,25.993-53.116c20.265,0.923,23.026,6.024,22.233,21.775c-0.138,2.761-0.429,3.139-0.91,8.151
			l21.801-5.313c0.667-31.116-7.822-43.992-40.329-45.015c-23.799-0.749-38.698,3.365-49.452,16.489
			c-12.605,15.387-14.566,28.395-17.923,48.018c-0.706,4.119-8.321,10.47-13.313,17.614c-1.322,1.896,0.539,4.271,0.485,5.465
			c-0.089,1.942,11.844,2.974,12.409,4.767c1.452,4.627,0.288,7.423,0.152,10.417c-0.062,1.34-5.061,5.144-5.516,5.795
			c-0.549,0.78,1.433,2.201,3.552,3.429c2.12,1.227,8.863,0.504,8.863,0.504s-11.307,5.68-9.135,7.642
			c4.783,4.319,6.716,3.675,7.319,6.485c0.176,0.813,0.557,6.069-0.49,8.557c-2.41,5.723,0.212,16.755,6.83,19.4
			c15.019,6.004,38.42,5.082,54.063,5.179c12.132,0.076,24.148-4.073,32.334-10.108c12.603-9.291,14.466-22.454,15.227-39.119
			C2817.046,120.934,2817.047,117.158,2816.913,112.788z M2707.703,65.428c0.406-4.106,19.047-13.481,19.067,1.19
			C2726.786,79.635,2707.296,69.538,2707.703,65.428z"/>
	</g>
</g>
<g>
	<g>
		
			<line fill="#182328" stroke="#182328" stroke-width="8" stroke-miterlimit="10" x1="4293.255" y1="363.807" x2="4311.753" y2="414.801"/>
		
			<line fill="none" stroke="#182328" stroke-width="8" stroke-miterlimit="10" x1="4311.091" y1="413.256" x2="4297.11" y2="472.295"/>
		
			<line fill="none" stroke="#182328" stroke-width="8" stroke-miterlimit="10" x1="4305.452" y1="397.055" x2="4361.651" y2="466.38"/>
		<g>
			<path fill="#182328" d="M4228.25,333.043c4.479,16.07,9.244,28.479,23.609,34.71c9.33,4.046,21.971,5.396,33.777,2.603
				c15.224-3.601,38.234-7.948,51.525-17.166c5.856-4.062,5.939-15.401,2.307-20.438c-1.576-2.189-2.385-7.396-2.396-8.229
				c-0.042-2.875,1.987-2.68,5.68-7.96c1.677-2.399-10.615-5.399-10.615-5.399s6.733-0.808,8.524-2.479
				c1.79-1.67,3.403-3.5,2.693-4.138c-0.59-0.532-6.314-3.12-6.675-4.411c-0.803-2.887-2.564-5.351-2.188-10.186
				c0.148-1.874,11.548-5.554,11.024-7.427c-0.319-1.151,0.961-3.885-0.752-5.436c-6.467-5.842-15.312-10.325-16.923-14.181
				c-7.671-18.371-12.498-30.608-28.23-42.779c-13.425-10.378-28.864-11.047-51.889-4.981c-31.453,8.283-36.838,22.733-29.212,52.91
				l22.438,0.291c-1.594-4.778-1.96-5.08-2.714-7.741c-4.305-15.172-2.757-20.762,16.785-26.205
				c19.731-5.495,13.728,6.059,37.237,45.938c44.543,75.55,11.168,73.611-12.706,75.82c-7.665,0.709-13.666-0.836-18.731-3.51
				c-9.076-4.79-10.051-13.738-13.22-25.124c-1.012-3.635-1.983-9.15-2.913-16.55l-18.986,11.031
				C4226.549,326.296,4227.396,329.976,4228.25,333.043z M4303.198,256.806c-3.268-14.303,17.001-9.344,18.316-5.434
				C4322.831,255.285,4306.101,269.496,4303.198,256.806z"/>
		</g>
	</g>
	<g>
		<path fill="#343F4F" d="M4268.057,304.89c0,0,0.936-7.801,3.455-8.381c2.521-0.58,13.104,8.907,15.777,34.664l5.349,0.485
			c0,0-6.271-42.48-21.272-40.264c-7.686,1.136-8.532,13.163-8.532,13.163L4268.057,304.89z"/>
		<path fill="#343F4F" d="M4270.793,308.145c0,0-20.773-4.073-24.277,5.583c-3.5,9.657,23.157,27.788,54.377,25.154
			c6.041-0.511,7.939-4.923,8.093-8.003c0.278-5.456-6.513-11.285-16.855-16.354l1.354,6.282c0,0,12.655,7.114,10.575,11.024
			c0,0-6.89,7.267-32.608-1.982c0,0-22.01-8.125-20.09-14.706c0,0,1.124-4.144,14.738-2.669L4270.793,308.145z"/>
		<path fill="#343F4F" d="M4286.638,301.249c0,0,11.322-4.953,15.159-0.056c3.836,4.897,0.218,11.15-1.217,14.732l-4.268-2.451
			c0,0,4.332-7.861,1.2-9.308c0,0-2.322-1.454-8.589,1.525L4286.638,301.249z"/>
		<path fill="#343F4F" d="M4254.91,330.583c0,0-5.443,8.929-1.19,14.454s13.257,1.104,15.021,0.518l-1.922-4.434
			c0,0-7.419,3.874-9.494,0.738c0,0-1.477-3.272,2.063-8.692L4254.91,330.583z"/>
		<path fill="#343F4F" d="M4268.02,336.924c0,0,6.568,19.356,16.105,18.188c7.555-0.925,8.502-12.903,8.502-12.903l-5.235-0.384
			c0,0-0.67,8.083-3.528,8.379c0,0-4.452,1.295-9.721-11.402L4268.02,336.924z"/>
		<path fill="#343F4F" d="M4277.681,306.289c0,0-14.171,11.028-16.886,15.716l4.372,2.516c0,0,7.719-9.633,14.648-13.665
			L4277.681,306.289z"/>
		
			<ellipse transform="matrix(-0.9746 0.2242 -0.2242 -0.9746 8519.2666 -321.1412)" fill="#343F4F" cx="4277.862" cy="323" rx="5.145" ry="5.238"/>
	</g>
</g>
<g>
	<g>
		
			<line fill="#182328" stroke="#182328" stroke-width="8" stroke-miterlimit="10" x1="3744.58" y1="357.109" x2="3729.988" y2="409.356"/>
		
			<line fill="none" stroke="#182328" stroke-width="8" stroke-miterlimit="10" x1="3730.53" y1="407.766" x2="3748.932" y2="465.579"/>
		
			<line fill="none" stroke="#182328" stroke-width="8" stroke-miterlimit="10" x1="3734.931" y1="391.185" x2="3684.13" y2="464.558"/>
		<g>
			<path fill="#182328" d="M3808.783,310.324l-19.767-9.565c-0.368,7.449-0.919,13.022-1.654,16.722
				c-2.301,11.593-2.595,20.589-11.284,26.052c-4.848,3.048-10.715,5.042-18.414,4.915c-23.97-0.397-57.104,4.057-18.398-74.643
				c20.432-41.542,13.57-52.609,33.661-48.62c19.898,3.949,21.864,9.406,18.718,24.86c-0.549,2.711-0.893,3.039-2.119,7.924
				l22.35-1.985c5.323-30.665-1.139-44.668-33.125-50.551c-23.419-4.308-38.766-2.474-51.365,8.889
				c-14.769,13.324-18.658,25.891-24.918,44.789c-1.315,3.967-9.797,9.105-15.803,15.419c-1.592,1.675-0.107,4.304-0.34,5.477
				c-0.379,1.906,11.265,4.715,11.554,6.571c0.743,4.792-0.827,7.383-1.411,10.321c-0.261,1.315-5.773,4.328-6.322,4.904
				c-0.66,0.69,1.088,2.392,2.998,3.922c1.913,1.532,8.688,1.828,8.688,1.828s-12.032,3.921-10.178,6.186
				c4.081,4.986,6.09,4.64,6.264,7.509c0.053,0.83-0.358,6.084-1.766,8.386c-3.241,5.297-2.302,16.598,3.845,20.206
				c13.948,8.187,37.223,10.783,52.675,13.225c11.983,1.893,24.485-0.409,33.484-5.149c13.854-7.297,17.669-20.032,20.918-36.395
				C3807.694,318.398,3808.261,314.666,3808.783,310.324z M3707.905,247.131c1.018-3.999,20.853-10.475,18.674,4.035
				C3724.645,264.039,3706.888,251.133,3707.905,247.131z"/>
		</g>
	</g>
	<g>
		<g>
			<g>
				<path fill="#D24E4E" d="M3755.771,346.725c-0.329,0.958-1.372,1.466-2.328,1.136l-15.812-5.449
					c-0.955-0.33-1.466-1.373-1.134-2.33l18.734-54.359c0.33-0.956,1.372-1.465,2.327-1.135l15.813,5.45
					c0.957,0.329,1.464,1.373,1.134,2.328L3755.771,346.725z"/>
				<path fill="#D24E4E" d="M3782.328,300.618c0.994-0.191,1.953,0.462,2.144,1.458l3.026,15.904
					c0.19,0.992-0.463,1.953-1.457,2.142l-56.262,10.708c-0.995,0.191-1.953-0.462-2.145-1.458l-3.027-15.904
					c-0.189-0.993,0.463-1.952,1.457-2.143L3782.328,300.618z"/>
				<path fill="#D24E4E" d="M3782.283,331.025c0.666,0.762,0.59,1.919-0.173,2.587l-12.182,10.661
					c-0.762,0.667-1.92,0.59-2.586-0.172l-37.718-43.1c-0.667-0.762-0.59-1.919,0.174-2.586l12.18-10.663
					c0.764-0.665,1.921-0.589,2.587,0.173L3782.283,331.025z"/>
			</g>
			<g>
				<path fill="#D02422" d="M3755.771,346.725c-0.329,0.958-1.372,1.466-2.328,1.136l-15.812-5.449
					c-0.955-0.33-1.466-1.373-1.134-2.33l18.734-54.359c0.33-0.956,1.372-1.465,2.327-1.135l15.813,5.45
					c0.957,0.329,1.464,1.373,1.134,2.328L3755.771,346.725z"/>
				<path fill="#D02422" d="M3781.892,300.951c0.993-0.188,1.953,0.463,2.143,1.458l3.026,15.903
					c0.188,0.994-0.464,1.955-1.458,2.145l-56.262,10.707c-0.996,0.189-1.955-0.463-2.144-1.457l-3.027-15.903
					c-0.189-0.994,0.462-1.953,1.455-2.144L3781.892,300.951z"/>
				<path fill="#D02422" d="M3781.846,331.358c0.667,0.762,0.588,1.918-0.173,2.585l-12.183,10.662
					c-0.761,0.668-1.921,0.591-2.587-0.171l-37.718-43.1c-0.667-0.762-0.589-1.92,0.173-2.585l12.184-10.663
					c0.761-0.667,1.92-0.59,2.585,0.172L3781.846,331.358z"/>
			</g>
		</g>
		<g>
			<g>
				<circle fill="#F8F8F8" cx="3762.677" cy="295.899" r="2.946"/>
				<polygon fill="#F8F8F8" points="3760.723,297.956 3746.834,341.867 3762.943,298.784 				"/>
			</g>
			<path fill="#F8F8F8" d="M3762.252,302.896c0,0,8.869,2.101,3.484,7.133c-0.681,0.638-1.293-0.162-2.396-0.383
				c0,0-2.049-0.513-1.678-2.199c0.118-0.528-0.654-0.943-0.654-0.943L3762.252,302.896z"/>
			<path fill="#F8F8F8" d="M3757.291,305.222c-2.286,0.307-2.726,2.477-2.726,2.477c-0.891,2.069,0.639,3.692,0.639,3.692
				s3.421,2.586,4.681,5.401c0.518,1.154,0.322,2.221-0.068,3.357c-1.438,4.169-5.274,4.182-5.274,4.182l1.221-3.071
				c0,0,0.684-0.112,1.216-0.958c0.535-0.844,0.915-2.421,0.186-3.113c-4.907-4.645-6.564-6.736-5.274-10.979
				c1.289-4.242,6.298-3.941,6.298-3.941L3757.291,305.222z"/>
			<path fill="#F8F8F8" d="M3751.583,322.948c0,0-2.62-0.44-3.921,3.636c-1.3,4.075,4.84,6.095,3.52,9.926
				c-0.598,1.734-1.211,2.021-1.211,2.021l-0.417,1.205c0,0,2.026-0.881,3.342-3.131c2.169-3.713-4.03-6.477-2.742-9.265
				L3751.583,322.948z"/>
			<polygon fill="#F8F8F8" points="3746.527,338.693 3744.313,338.575 3746.354,339.198 			"/>
		</g>
	</g>
</g>
<g>
	<g>
		
			<line fill="#182328" stroke="#182328" stroke-width="8" stroke-miterlimit="10" x1="2377.852" y1="342.582" x2="2361.104" y2="396.263"/>
		
			<line fill="none" stroke="#182328" stroke-width="8" stroke-miterlimit="10" x1="2361.717" y1="394.629" x2="2378.981" y2="455.107"/>
		
			<line fill="none" stroke="#182328" stroke-width="8" stroke-miterlimit="10" x1="2366.792" y1="377.588" x2="2311.868" y2="452.031"/>
		<g>
			<path fill="#182328" d="M2445.835,296.105l-20.183-10.524c-0.614,7.703-1.358,13.462-2.24,17.273
				c-2.74,11.942-3.33,21.251-12.5,26.643c-5.12,3.007-11.258,4.891-19.232,4.518c-24.825-1.159-59.297,2.422-16.736-77.914
				c22.462-42.407,15.697-54.09,36.393-49.331c20.496,4.714,22.359,10.429,18.617,26.344c-0.655,2.792-1.02,3.121-2.442,8.143
				l23.222-1.36c6.468-31.608,0.213-46.317-32.75-53.41c-24.128-5.194-40.087-3.771-53.495,7.611
				c-15.722,13.346-20.143,26.244-27.216,45.629c-1.488,4.072-10.438,9.131-16.855,15.484c-1.703,1.689-0.246,4.457-0.523,5.664
				c-0.452,1.965,11.523,5.236,11.767,7.172c0.621,4.989-1.087,7.621-1.781,10.649c-0.315,1.356-6.122,4.306-6.707,4.885
				c-0.707,0.694,1.051,2.512,2.987,4.158c1.93,1.647,8.942,2.164,8.942,2.164s-12.587,3.686-10.736,6.088
				c4.073,5.298,6.164,5,6.257,7.979c0.026,0.862-0.563,6.293-2.094,8.636c-3.522,5.386-2.903,17.124,3.354,21.055
				c14.2,8.917,38.233,12.334,54.168,15.343c12.359,2.335,25.381,0.342,34.853-4.29c14.582-7.13,18.931-20.205,22.808-37.058
				C2444.453,304.438,2445.157,300.59,2445.835,296.105z M2343.278,227.486c1.179-4.115,21.934-10.207,19.225,4.761
				C2360.095,245.526,2342.098,231.597,2343.278,227.486z"/>
		</g>
	</g>
	<g>
		<g>
			<path fill="#364D5D" d="M2386.448,329.504c-0.194,1.224-1.104,2.099-2.199,1.923l0,0c-1.094-0.174-1.682-1.292-1.484-2.517
				l2.721-16.96c0.199-1.226,1.104-2.102,2.2-1.926l0,0c1.094,0.175,1.683,1.293,1.488,2.517L2386.448,329.504z"/>
			<path fill="#364D5D" d="M2371.802,329.302c-1.019,1.248-2.546,1.683-3.403,0.981l0,0c-0.855-0.706-0.719-2.287,0.301-3.529
				l14.135-17.209c1.025-1.243,2.548-1.682,3.406-0.976l0,0c0.856,0.702,0.723,2.284-0.303,3.527L2371.802,329.302z"/>
			<path fill="#364D5D" d="M2400.169,332.231c0.558,1.618,0.163,3.227-0.887,3.587l0,0c-1.053,0.361-2.352-0.662-2.911-2.283
				l-7.697-22.414c-0.553-1.62-0.155-3.23,0.89-3.589l0,0c1.055-0.359,2.355,0.662,2.911,2.281L2400.169,332.231z"/>
		</g>
		<path fill="#303A40" d="M2380.006,306.884c0,0-1.015,1.898,0.565,3.329c0.951,0.86,2.992,1.45,6.708,2.046
			c3.8,0.609,6.136,0.466,7.282-0.078c1.849-0.876,1.452-2.542,1.452-2.542L2380.006,306.884z"/>
		<g>
			<path fill="#364D5D" d="M2410.632,297.792l10.88-7.927c0,0,3.377-1.048,2.98,2.183c-0.395,3.229-2.549,15.909-2.549,15.909
				s-1.099,4.272-3.961,0.845C2415.024,305.266,2410.632,297.792,2410.632,297.792L2410.632,297.792z"/>
			<polygon fill="#333B40" points="2410.66,297.715 2416.832,293.287 2415.027,304.552 			"/>
		</g>
		<g>
			<path fill="#364D5D" d="M2412.014,311.56c-0.196,1.195-1.319,2.005-2.514,1.816l-47.27-7.584
				c-1.193-0.195-2.008-1.317-1.816-2.511l4.04-25.158c0.188-1.196,1.314-2.009,2.51-1.817l47.267,7.588
				c1.198,0.189,2.011,1.316,1.817,2.511L2412.014,311.56z"/>
			<path fill="#495A66" d="M2413.143,304.509l-1.061,6.598c-0.188,1.196-1.26,1.537-2.458,1.342l-47.244-7.581
				c-1.196-0.191-2.085-0.845-1.892-2.04l1.061-6.602L2413.143,304.509z"/>
			
				<rect x="2361.29" y="299.441" transform="matrix(0.9874 0.1585 -0.1585 0.9874 77.7117 -374.6043)" fill="#61727F" width="52.255" height="0.933"/>
			<path fill="#55B49D" d="M2367.412,301.942c-0.117,0.729-0.804,1.228-1.535,1.111c-0.729-0.119-1.229-0.803-1.111-1.538
				c0.119-0.728,0.806-1.226,1.538-1.107C2367.034,300.524,2367.528,301.213,2367.412,301.942z"/>
		</g>
		<g>
			<g>
				<circle fill="#FFFCF6" cx="2379.866" cy="274.981" r="12.652"/>
				<path fill="#CCD0D2" d="M2389.866,276.42c-0.87,5.421-5.973,9.11-11.394,8.239c-5.421-0.87-9.11-5.969-8.241-11.39
					c0.874-5.421,5.972-9.112,11.393-8.243C2387.043,265.896,2390.734,270.996,2389.866,276.42z"/>
				<g>
					<path fill="#868686" d="M2377.729,269.497c-0.125,0.779-0.859,1.308-1.636,1.183c-0.781-0.125-1.31-0.854-1.186-1.633
						c0.128-0.779,0.857-1.31,1.638-1.184C2377.322,267.987,2377.852,268.718,2377.729,269.497z"/>
					<path fill="#868686" d="M2382.706,268.446c-0.125,0.78-0.858,1.308-1.633,1.183c-0.781-0.125-1.306-0.857-1.182-1.634
						c0.122-0.78,0.852-1.309,1.634-1.186C2382.301,266.934,2382.833,267.667,2382.706,268.446z"/>
					<path fill="#868686" d="M2386.746,270.945c-0.129,0.777-0.857,1.307-1.636,1.181c-0.782-0.124-1.311-0.857-1.187-1.634
						c0.129-0.778,0.859-1.308,1.639-1.185C2386.338,269.434,2386.871,270.164,2386.746,270.945z"/>
					<path fill="#868686" d="M2388.155,275.98c-0.125,0.779-0.856,1.307-1.638,1.182c-0.775-0.125-1.305-0.857-1.181-1.634
						c0.128-0.78,0.857-1.309,1.638-1.184C2387.751,274.469,2388.28,275.201,2388.155,275.98z"/>
					<circle fill="#868686" cx="2383.888" cy="279.734" r="1.43"/>
					<path fill="#868686" d="M2380.68,281.069c-0.125,0.778-0.855,1.307-1.632,1.181c-0.783-0.123-1.311-0.854-1.184-1.634
						c0.122-0.777,0.854-1.306,1.632-1.181C2380.275,279.558,2380.805,280.29,2380.68,281.069z"/>
					<circle fill="#868686" cx="2374.511" cy="278.229" r="1.426"/>
					<path fill="#868686" d="M2374.811,273.839c-0.123,0.779-0.857,1.307-1.636,1.184c-0.773-0.127-1.306-0.859-1.183-1.634
						c0.125-0.777,0.859-1.311,1.638-1.187C2374.411,272.327,2374.935,273.061,2374.811,273.839z"/>
				</g>
			</g>
			<g>
				<path fill="#FFFCF6" d="M2415.081,280.632c-1.107,6.899-7.597,11.596-14.498,10.488c-6.895-1.107-11.595-7.599-10.487-14.496
					c1.108-6.903,7.595-11.597,14.497-10.489C2411.489,267.242,2416.189,273.732,2415.081,280.632z"/>
				<circle fill="#CCD0D2" cx="2402.77" cy="278.49" r="9.944"/>
				<g>
					<path fill="#868686" d="M2400.449,273.144c-0.126,0.777-0.856,1.308-1.637,1.184c-0.776-0.125-1.307-0.858-1.183-1.637
						c0.128-0.777,0.86-1.309,1.637-1.182C2400.045,271.633,2400.574,272.367,2400.449,273.144z"/>
					<path fill="#868686" d="M2405.427,272.092c-0.125,0.779-0.854,1.307-1.636,1.184c-0.776-0.124-1.306-0.856-1.184-1.636
						c0.129-0.776,0.859-1.308,1.637-1.184C2405.022,270.582,2405.553,271.314,2405.427,272.092z"/>
					<circle fill="#868686" cx="2408.058" cy="274.364" r="1.426"/>
					<path fill="#868686" d="M2410.877,279.625c-0.125,0.777-0.856,1.308-1.636,1.184c-0.777-0.125-1.303-0.857-1.183-1.636
						c0.126-0.778,0.858-1.308,1.635-1.185C2410.475,278.113,2411.001,278.849,2410.877,279.625z"/>
					<path fill="#868686" d="M2408.02,283.607c-0.127,0.779-0.858,1.308-1.633,1.181c-0.781-0.122-1.311-0.854-1.187-1.633
						c0.125-0.777,0.857-1.308,1.635-1.183C2407.617,282.096,2408.144,282.829,2408.02,283.607z"/>
					<circle fill="#868686" cx="2401.993" cy="284.49" r="1.428"/>
					<path fill="#868686" d="M2398.642,282.104c-0.124,0.777-0.857,1.305-1.636,1.182c-0.773-0.126-1.304-0.857-1.183-1.637
						c0.127-0.777,0.861-1.306,1.637-1.184C2398.237,280.592,2398.767,281.325,2398.642,282.104z"/>
					<path fill="#868686" d="M2397.53,277.487c-0.122,0.776-0.852,1.305-1.629,1.181c-0.781-0.125-1.308-0.856-1.185-1.635
						c0.124-0.775,0.854-1.309,1.639-1.182C2397.13,275.973,2397.662,276.707,2397.53,277.487z"/>
				</g>
			</g>
		</g>
	</g>
</g>
<g>
	<g>
		<polygon fill="#2E4AD9" stroke="#182328" stroke-miterlimit="10" points="4974.211,137.341 4985.602,154.422 4962.088,177.467 
			4954.201,156.95 		"/>
		<polygon fill="#C1272D" stroke="#182328" stroke-miterlimit="10" points="5001.72,165.461 4981.799,184.981 4962.088,177.467 
			4985.67,154.357 		"/>
		<polygon fill="#FCEE21" stroke="#182328" stroke-miterlimit="10" points="5001.653,165.101 4991.437,151.152 4974.577,137.369 
			4974.396,137.62 4985.886,154.711 		"/>
		<line fill="#2E4AD9" stroke="#182328" stroke-miterlimit="10" x1="4978.068" y1="162.374" x2="4994.844" y2="171.774"/>
		<line fill="#2E4AD9" stroke="#182328" stroke-miterlimit="10" x1="4969.572" y1="170.699" x2="4988.178" y2="178.307"/>
		<line fill="#2E4AD9" stroke="#182328" stroke-miterlimit="10" x1="4991.818" y1="158.621" x2="4969.578" y2="180.47"/>
		<line fill="#2E4AD9" stroke="#182328" stroke-miterlimit="10" x1="4997.215" y1="162.319" x2="4976.385" y2="182.767"/>
		<line fill="#2E4AD9" stroke="#182328" stroke-miterlimit="10" x1="4982.09" y1="149.14" x2="4959.759" y2="171.026"/>
		<line fill="#2E4AD9" stroke="#182328" stroke-miterlimit="10" x1="4956.752" y1="163.504" x2="4977.646" y2="143.032"/>
		<line fill="#2E4AD9" stroke="#182328" stroke-miterlimit="10" x1="4967.107" y1="144.401" x2="4977.953" y2="162.257"/>
		<line fill="#2E4AD9" stroke="#182328" stroke-miterlimit="10" x1="4959.808" y1="151.554" x2="4969.484" y2="170.786"/>
		<line fill="#2E4AD9" stroke="#182328" stroke-miterlimit="10" x1="4977.461" y1="141.915" x2="4993.859" y2="154.46"/>
		<line fill="#2E4AD9" stroke="#182328" stroke-miterlimit="10" x1="4980.959" y1="147.373" x2="4997.191" y2="159.011"/>
		<line fill="#2E4AD9" stroke="#182328" stroke-miterlimit="10" x1="4991.707" y1="158.468" x2="4980.318" y2="142.244"/>
		<line fill="#2E4AD9" stroke="#182328" stroke-miterlimit="10" x1="4997.355" y1="162.181" x2="4987.067" y2="147.653"/>
	</g>
	<g>
		
			<line fill="#182328" stroke="#182328" stroke-width="8" stroke-miterlimit="10" x1="4972.441" y1="192.702" x2="4964.259" y2="234.007"/>
		
			<line fill="none" stroke="#182328" stroke-width="8" stroke-miterlimit="10" x1="4964.584" y1="232.743" x2="4982.268" y2="276.394"/>
		
			<line fill="none" stroke="#182328" stroke-width="8" stroke-miterlimit="10" x1="4967.001" y1="219.649" x2="4932.053" y2="279.462"/>
		<g>
			<path fill="#182328" d="M5019.346,152.669l-15.867-6.226c0.158,5.787,0.063,10.133-0.286,13.041
				c-1.09,9.11-0.781,16.09-7.181,20.835c-3.572,2.647-7.993,4.541-13.959,4.899c-18.576,1.12-43.955,6.542-18.685-56.674
				c13.338-33.369,7.37-41.525,23.157-39.635c15.635,1.872,17.48,5.979,15.967,18.127c-0.264,2.13-0.512,2.405-1.17,6.259
				l17.182-2.867c2.294-24.051-3.543-34.504-28.65-37.152c-18.381-1.94-30.148,0.394-39.225,9.938
				c-10.637,11.192-12.898,21.15-16.617,36.149c-0.781,3.148-7.04,7.629-11.313,12.875c-1.133,1.391,0.172,3.337,0.063,4.259
				c-0.181,1.498,8.999,2.979,9.333,4.398c0.859,3.665-0.201,5.764-0.477,8.072c-0.126,1.034-4.211,3.695-4.602,4.172
				c-0.471,0.573,0.982,1.786,2.553,2.857c1.571,1.071,6.832,0.896,6.832,0.896s-9.078,3.751-7.508,5.394
				c3.457,3.616,4.99,3.229,5.296,5.438c0.09,0.64,0.084,4.73-0.868,6.596c-2.191,4.293-0.793,12.983,4.18,15.41
				c11.283,5.505,29.451,6.129,41.557,7.098c9.387,0.751,18.926-1.773,25.608-5.979c10.286-6.473,12.481-16.556,14.022-29.413
				C5018.982,158.983,5019.199,156.06,5019.346,152.669z M4937.506,109.767c0.551-3.155,15.516-9.349,14.694,2.011
				C4951.469,121.856,4936.958,112.925,4937.506,109.767z"/>
		</g>
	</g>
</g>
<path fill="#FFFFFF" d="M2695.285-164.73c0,0,38.299-210.856,157.721-65.714c125.136-143.429,202.279,8.455,202.279,8.455
	s146.015-23.886,194.207,57.259H2695.285z"/>
<path fill="#FFFFFF" d="M3889.98-58.017c0,0,0.161-100.455-43.116-90.204s-58.976,34.395-65.345,49.943
	c0,0-8.822-53.361-82.98-50.583c0,0-114.887-4.486-127.485,63.167c0,0-54.591-77.903-148.634,27.676"/>
<path fill="#FFFFFF" d="M1874.285-318.73c0,0,23.69-159.925,164.495-68.536c105.586-77.477,105.586,21.047,105.586,21.047
	s89.136-73.469,122.478-18.462c59.15-32.062,150.521-35.466,185.451,65.952H1874.285z"/>
<path fill="#FFFFFF" d="M2135.492-75.73c0,0-38.299-210.856-157.721-65.714c-125.137-143.429-202.279,8.455-202.279,8.455
	s-146.015-23.886-194.207,57.259H2135.492z"/>
<path fill="#FFFFFF" d="M3350.285-350.73c0,0,23.689-159.925,164.495-68.536c105.586-77.477,105.586,21.047,105.586,21.047
	s89.136-73.469,122.478-18.462c59.15-32.062,150.521-35.466,185.451,65.952H3350.285z"/>
<g>
	<g>
		<g>
			<path fill="#C9EC52" d="M879.006,1161.176c0-142.209-8.725-724.489,566.447-724.489c530.714,0,569.547,485.583,530.714,724.489"
				/>
			<path fill="#83A93C" d="M879.006,1161.176c0-142.209-0.479-684,526.18-709.128C1952.527,425.933,2015,910.23,2015,1161.176"/>
		</g>
		<path fill="#F4DC76" d="M1084.439,640.549l29.032,57.776c0,0,782.697,210.873,587.432-197.141c0,0-24.07-14.623-70.841-26.191
			C1630.063,474.992,1946.133,811.733,1084.439,640.549z"/>
	</g>
	<g>
		<path fill="#C9EC52" d="M-502.248,1161.176c0-142.209-8.725-724.489,566.447-724.489c530.713,0,530.713,470.163,530.713,724.489"
			/>
		<path fill="#83A93C" d="M-502.248,1161.176c0-142.209-0.48-684,526.179-709.128c547.343-26.115,609.815,458.182,609.815,709.128"
			/>
	</g>
	<g>
		<g>
			<path fill="#C9EC52" d="M342.425,867.607c0-145.797,120.415-430.764,372.103-430.764c251.688,0,431.249,170.019,431.249,430.764"
				/>
			<path fill="#83A93C" d="M343.654,878.002c0-145.797,120.416-430.764,372.104-430.764c251.686,0,431.248,173.484,431.248,430.764"
				/>
		</g>
		<path fill="#F4DC76" d="M714.309,878.27h100.053c0,0,98.754-167.755-199.581-414.293c0,0-19.529,6.542-34.728,14.45
			C580.053,478.427,802.667,606.27,714.309,878.27z"/>
	</g>
	<g>
		<path fill="#C9EC52" d="M639.986,1152.174c0-145.797,127.221-430.764,393.135-430.764c265.915,0,455.625,170.019,455.625,430.764"
			/>
		<path fill="#83A93C" d="M641.285,1161.27c0-145.797,127.222-430.764,393.136-430.764c265.913,0,455.624,173.484,455.624,430.764"
			/>
	</g>
	<g>
		<g>
			<path fill="#C9EC52" d="M64.355,1150.875c0-145.797,127.221-430.764,393.135-430.764c265.915,0,455.625,170.019,455.625,430.764"
				/>
			<path fill="#83A93C" d="M65.654,1161.27c0-145.797,127.222-430.764,393.135-430.764c265.914,0,455.625,173.484,455.625,430.764"
				/>
		</g>
		<path fill="#F4DC76" d="M423.395,1161.27c0,0-125.462-140.745,108.555-426.201c0,0-23.811-3.814-43.214-3.814
			c0,0-180.331,146.654-234.901,429.921"/>
	</g>
	<g>
		<circle fill="#A1C729" cx="64.094" cy="311.176" r="63.86"/>
		<path fill="#C9E84E" d="M66.719,251.107l-4.665,105.567L7.816,302.719C7.816,302.719,7.816,256.938,66.719,251.107z"/>
		<path fill="#89A621" d="M66.719,268.894c0,0,53.654,2.514,53.654,44.906c0,27.41-23.328,54.237-53.654,58.903"/>
		<g>
			<polygon fill="#775506" points="57.787,459.554 67,251.107 67,459.598 			"/>
			<polygon fill="#775506" points="63,318.213 16.352,281.27 15.105,281.27 63,324.88 			"/>
			<polygon fill="#775506" points="66,335.378 120,295.721 120,297.762 66,341.21 			"/>
			<polygon fill="#775506" points="62,359.62 14.603,320.27 13.357,320.27 62,366.287 			"/>
		</g>
	</g>
	<g>
		<circle fill="#A1C729" cx="1694.208" cy="352.35" r="66.157"/>
		<path fill="#C9E84E" d="M1705.913,291.17l-20.629,107.513l-47.496-63.447C1637.788,335.236,1644.659,288.307,1705.913,291.17z"/>
		<path fill="#89A621" d="M1703.243,309.403c0,0,54.622,10.629,48.258,54.084c-4.111,28.098-32.052,52.095-63.839,52.326"/>
		<g>
			<polygon fill="#775506" points="1665.619,503.522 1706.349,291.234 1675.057,504.951 			"/>
			<polygon fill="#775506" points="1693.251,359.579 1649.868,313.76 1648.59,313.572 1692.251,366.414 			"/>
			<polygon fill="#775506" points="1692.692,377.469 1754.116,344.94 1753.811,347.032 1691.815,383.448 			"/>
			<polygon fill="#775506" points="1685.02,401.728 1641.874,355.859 1640.596,355.672 1684.018,408.563 			"/>
		</g>
	</g>
	<g>
		<circle fill="#A1C729" cx="186.986" cy="699.328" r="69.974"/>
		<path fill="#C9E84E" d="M163.182,637.896l41.783,107.985l-78.174-30.268C126.791,715.613,106.641,669.674,163.182,637.896z"/>
		<path fill="#89A621" d="M171.01,655.745c0,0,54.945-21.094,73.605,21.444c12.064,27.506,0.465,64.694-27.914,82.724"/>
		<g>
			<polygon fill="#775506" points="246.297,850.852 163.792,637.628 255.561,846.841 			"/>
			<polygon fill="#775506" points="189.822,706.505 125.658,689.745 124.408,690.293 192.757,713.195 			"/>
			<polygon fill="#775506" points="199.482,722.806 236.729,659.018 237.626,661.066 202.049,728.659 			"/>
			<polygon fill="#775506" points="206.646,748.668 141.744,731.189 140.494,731.738 209.58,755.361 			"/>
		</g>
	</g>
	<g>
		<circle fill="#A1C729" cx="340.202" cy="617.675" r="69.974"/>
		<path fill="#C9E84E" d="M336.77,551.881l5.973,115.633l-64.811-53.166C277.932,614.349,273.134,564.414,336.77,551.881z"/>
		<path fill="#89A621" d="M338.633,571.282c0,0,58.786-2.882,63.229,43.356c2.871,29.899-19.762,61.604-52.35,69.87"/>
		<g>
			<polygon fill="#775506" points="349.229,780.142 337.434,551.817 359.282,779.225 			"/>
			<polygon fill="#775506" points="340.654,625.378 284.932,589.419 283.573,589.549 341.353,632.65 			"/>
			<polygon fill="#775506" points="344.74,643.879 400.043,594.913 400.256,597.139 345.352,650.242 			"/>
			<polygon fill="#775506" points="343.469,670.687 287.271,633.815 285.913,633.946 344.168,677.961 			"/>
		</g>
	</g>
	<g>
		<circle fill="#A1C729" cx="832.785" cy="630.46" r="69.974"/>
		<path fill="#C9E84E" d="M808.979,569.028l41.783,107.986l-78.173-30.269C772.59,646.746,752.439,600.806,808.979,569.028z"/>
		<path fill="#89A621" d="M816.808,586.877c0,0,54.946-21.094,73.605,21.444c12.064,27.506,0.465,64.694-27.913,82.724"/>
		<g>
			<polygon fill="#775506" points="892.095,781.985 809.59,568.76 901.358,777.973 			"/>
			<polygon fill="#775506" points="835.62,637.637 771.456,620.877 770.206,621.425 838.555,644.328 			"/>
			<polygon fill="#775506" points="845.28,653.938 882.526,590.149 883.424,592.198 847.847,659.791 			"/>
			<polygon fill="#775506" points="852.443,679.801 787.542,662.322 786.292,662.871 855.379,686.493 			"/>
		</g>
	</g>
	<g>
		<circle fill="#A1C729" cx="1032.374" cy="659.072" r="69.974"/>
		<path fill="#C9E84E" d="M1037.608,593.398l-9.259,115.417l-57.271-61.214C971.078,647.601,972.878,597.468,1037.608,593.398z"/>
		<path fill="#89A621" d="M1036.909,612.875c0,0,58.654,4.861,56.989,51.282c-1.079,30.017-27.679,58.477-61.069,62.393"/>
		<g>
			<polygon fill="#775506" points="1019.994,821.319 1038.275,593.421 1030.081,821.73 			"/>
			<polygon fill="#775506" points="1031.811,666.769 981.291,623.807 979.928,623.757 1031.548,674.07 			"/>
			<polygon fill="#775506" points="1033.433,685.647 1094.685,644.364 1094.604,646.599 1033.203,692.034 			"/>
			<polygon fill="#775506" points="1028.654,712.056 977.783,668.125 976.419,668.076 1028.392,719.357 			"/>
		</g>
	</g>
	<g>
		<circle fill="#A1C729" cx="1358.132" cy="703.034" r="69.975"/>
		<path fill="#C9E84E" d="M1386.584,643.611l-50.056,104.409l-31.494-77.688C1305.034,670.332,1324.703,624.183,1386.584,643.611z"
			/>
		<path fill="#89A621" d="M1378.942,661.542c0,0,53.003,25.583,34.793,68.315c-11.778,27.631-46.817,44.652-79.39,36.325"/>
		<g>
			<polygon fill="#775506" points="1288.36,850.034 1387.198,643.873 1297.626,854.038 			"/>
			<polygon fill="#775506" points="1354.847,710.016 1323.106,651.788 1321.851,651.251 1351.98,716.736 			"/>
			<polygon fill="#775506" points="1349.586,728.22 1421.572,711.664 1420.694,713.721 1347.078,734.097 			"/>
			<polygon fill="#775506" points="1335.648,751.155 1303.929,691.895 1302.673,691.36 1332.783,757.875 			"/>
		</g>
	</g>
	<g>
		<circle fill="#A1C729" cx="582.896" cy="326.69" r="66.158"/>
		<path fill="#C9E84E" d="M573.806,265.066l15.919,108.311l-65.736-44.271C523.988,329.105,515.024,282.531,573.806,265.066z"/>
		<path fill="#89A621" d="M577.288,283.162c0,0,55.075-7.948,63.374,35.18c5.369,27.885-13.113,59.743-43.051,70.427"/>
		<g>
			<polygon fill="#775506" points="605.676,478.845 574.238,264.983 615.057,477.086 			"/>
			<polygon fill="#775506" points="584.373,333.83 528.323,304.85 527.055,305.093 585.68,340.613 			"/>
			<polygon fill="#775506" points="589.736,350.907 637.025,299.968 637.425,302.044 590.877,356.841 			"/>
			<polygon fill="#775506" points="590.478,376.339 534.636,347.233 533.367,347.478 591.783,383.123 			"/>
		</g>
	</g>
</g>
<path fill="#FFFFFF" d="M5285.285-69.73c0,0,38.299-210.856,157.721-65.714c125.137-143.429,202.279,8.455,202.279,8.455
	s146.015-23.886,194.207,57.259H5285.285z"/>
<path fill="#FFFFFF" d="M4464.285-223.73c0,0,23.689-159.925,164.495-68.536c105.586-77.477,105.586,21.047,105.586,21.047
	s89.136-73.469,122.478-18.462c59.15-32.062,150.521-35.466,185.451,65.952H4464.285z"/>
<path fill="#FFFFFF" d="M4741.492-5.73c0,0-38.299-210.856-157.721-65.714c-125.137-143.429-202.279,8.455-202.279,8.455
	S4235.478-86.875,4187.285-5.73H4741.492z"/>
<path fill="#FFFFFF" d="M563.295-75.73c0,0-38.299-210.856-157.721-65.714c-125.137-143.429-202.279,8.455-202.279,8.455
	S57.28-156.875,9.088-75.73H563.295z"/>
<path fill="#FFFFFF" d="M1275.295-227.73c0,0-23.689-159.925-164.495-68.536c-105.586-77.477-105.586,21.047-105.586,21.047
	s-89.136-73.469-122.478-18.462c-59.15-32.062-150.521-35.466-185.451,65.952H1275.295z"/>
<path fill="#FFFFFF" d="M976.088-5.73c0,0,38.299-210.856,157.721-65.714c125.137-143.429,202.279,8.455,202.279,8.455
	s146.015-23.886,194.207,57.259H976.088z"/>
<g>
	<g>
		
			<line fill="#182328" stroke="#182328" stroke-width="8" stroke-miterlimit="10" x1="1392.324" y1="351.807" x2="1409.316" y2="403.322"/>
		
			<line fill="none" stroke="#182328" stroke-width="8" stroke-miterlimit="10" x1="1408.701" y1="401.758" x2="1392.992" y2="460.361"/>
		
			<line fill="none" stroke="#182328" stroke-width="8" stroke-miterlimit="10" x1="1403.539" y1="385.399" x2="1457.678" y2="456.344"/>
		<g>
			<path fill="#182328" d="M1328.25,319.147c4.003,16.195,8.404,28.739,22.58,35.388c9.208,4.319,21.802,6.04,33.686,3.593
				c15.323-3.152,38.452-6.822,52.008-15.645c5.973-3.888,6.388-15.22,2.906-20.362c-1.513-2.234-2.167-7.463-2.152-8.295
				c0.042-2.875,2.064-2.621,5.911-7.792c1.747-2.347-10.453-5.708-10.453-5.708s6.755-0.609,8.595-2.227
				c1.838-1.617,3.504-3.398,2.813-4.057c-0.574-0.549-6.219-3.304-6.542-4.606c-0.718-2.908-2.406-5.424-1.887-10.245
				c0.204-1.869,11.705-5.213,11.238-7.1c-0.287-1.161,1.074-3.854-0.593-5.455c-6.292-6.03-15.001-10.77-16.498-14.672
				c-7.128-18.588-11.593-30.962-26.964-43.588c-13.111-10.769-28.527-11.891-51.72-6.504
				c-31.681,7.356-37.489,21.642-30.753,52.029l22.419,0.949c-1.452-4.822-1.81-5.135-2.486-7.817
				c-3.856-15.292-2.145-20.834,17.549-25.7c19.884-4.914,13.544,6.459,35.873,47.012c42.304,76.826,9,73.909-14.927,75.414
				c-7.685,0.484-13.637-1.237-18.622-4.058c-8.933-5.055-9.642-14.027-12.476-25.502c-0.906-3.662-1.714-9.204-2.426-16.627
				l-19.303,10.469C1326.748,312.353,1327.487,316.056,1328.25,319.147z M1405.406,245.144c-2.847-14.393,17.266-8.841,18.467-4.893
				C1425.074,244.2,1407.934,257.914,1405.406,245.144z"/>
		</g>
	</g>
	<g>
		<g>
			<g>
				<g>
					<path fill="#BDCEE1" d="M1340.244,264.029c0,0,1.694,0.529-0.021,2.458c-0.32,0.362-0.24,2.26,0.905,3.555
						c4.971,5.623,21.423,17.099,21.423,17.099l39.588,4.343c0,0,4.228,1.818,5.05,5.275c0,0,0.876,3.669-0.945,5.842
						c-1.821,2.175-30.33,37.951-30.33,37.951s-3.58,2.829-7.274,1.775c-3.693-1.055-4.871-4.638-4.871-4.638l-12.338-36.494
						l-20.986-16.848c0,0-2.421-1.779-4.148-0.033c-1.726,1.747-2.515,0.308-2.515,0.308L1340.244,264.029z"/>
					<path fill="#E7F1F8" d="M1340.244,264.029c0,0-0.78-0.708-1.424,0.098c-0.642,0.806-15.287,19.123-15.287,19.123
						c-0.573,0.716,0.25,1.372,0.25,1.372L1340.244,264.029z"/>
				</g>
				<path fill="#52A757" d="M1374.713,291.583l25.778,2.957c0,0,6.588,1.986,3.894,7.04l-30.311,37.915c0,0-3.664,2.269-6.321-0.599
					l-9.505-26.719L1374.713,291.583z"/>
			</g>
			<g>
				<g>
					<polygon opacity="0.6" fill="#E4F0F8" points="1339.115,272.171 1360.498,289.266 1400.941,309.251 1392.295,320.067 
						1336.492,275.454 					"/>
					<polygon opacity="0.6" fill="#E6F2F9" points="1333.867,278.737 1355.399,295.953 1386.882,326.84 1381.993,332.956 
						1353.631,297.663 1332.463,280.491 					"/>
				</g>
				<path opacity="0.8" fill="#FFFFFF" d="M1336.81,269.367c0,0-2.836,0.453-2.896,3.623
					C1333.855,276.161,1338.02,270.333,1336.81,269.367z"/>
			</g>
		</g>
		<path fill="#52A757" d="M1318.034,283.81c0,0-10.774,3.368-6.856,7.996C1315.099,296.434,1317.967,290.316,1318.034,283.81z"/>
	</g>
</g>
<g>
	<g>
		<polygon fill="#2E4AD9" stroke="#182328" stroke-miterlimit="10" points="828.459,319.955 837.896,338.188 811.985,358.499 
			806.409,337.237 		"/>
		<polygon fill="#C1272D" stroke="#182328" stroke-miterlimit="10" points="852.699,350.937 830.747,368.141 811.985,358.499 
			837.972,338.13 		"/>
		<polygon fill="#FCEE21" stroke="#182328" stroke-miterlimit="10" points="852.673,350.571 844.057,335.581 828.82,320.022 
			828.613,320.252 838.147,338.506 		"/>
		<line fill="#2E4AD9" stroke="#182328" stroke-miterlimit="10" x1="829.532" y1="345.26" x2="845.169" y2="356.453"/>
		<line fill="#2E4AD9" stroke="#182328" stroke-miterlimit="10" x1="820.17" y1="352.597" x2="837.823" y2="362.211"/>
		<line fill="#2E4AD9" stroke="#182328" stroke-miterlimit="10" x1="843.612" y1="343.046" x2="819.099" y2="362.31"/>
		<line fill="#2E4AD9" stroke="#182328" stroke-miterlimit="10" x1="848.568" y1="347.317" x2="825.61" y2="365.343"/>
		<line fill="#2E4AD9" stroke="#182328" stroke-miterlimit="10" x1="834.989" y1="332.55" x2="810.38" y2="351.84"/>
		<line fill="#2E4AD9" stroke="#182328" stroke-miterlimit="10" x1="808.222" y1="344.033" x2="831.245" y2="325.989"/>
		<line fill="#2E4AD9" stroke="#182328" stroke-miterlimit="10" x1="820.62" y1="326.188" x2="829.431" y2="345.131"/>
		<line fill="#2E4AD9" stroke="#182328" stroke-miterlimit="10" x1="812.576" y1="332.493" x2="820.073" y2="352.674"/>
		<line fill="#2E4AD9" stroke="#182328" stroke-miterlimit="10" x1="831.185" y1="324.858" x2="846.1" y2="339.136"/>
		<line fill="#2E4AD9" stroke="#182328" stroke-miterlimit="10" x1="834.06" y1="330.669" x2="848.91" y2="344.026"/>
		<line fill="#2E4AD9" stroke="#182328" stroke-miterlimit="10" x1="843.519" y1="342.882" x2="833.988" y2="325.501"/>
		<line fill="#2E4AD9" stroke="#182328" stroke-miterlimit="10" x1="848.723" y1="347.195" x2="840.1" y2="331.621"/>
	</g>
	<g>
		
			<line fill="#182328" stroke="#182328" stroke-width="8" stroke-miterlimit="10" x1="820.596" y1="374.782" x2="807.908" y2="414.933"/>
		
			<line fill="none" stroke="#182328" stroke-width="8" stroke-miterlimit="10" x1="808.371" y1="413.713" x2="821.133" y2="459.048"/>
		
			<line fill="none" stroke="#182328" stroke-width="8" stroke-miterlimit="10" x1="812.217" y1="400.965" x2="770.886" y2="456.56"/>
		<g>
			<path fill="#182328" d="M871.628,340.166l-15.083-7.938c-0.481,5.769-1.054,10.079-1.722,12.929
				c-2.088,8.935-2.551,15.906-9.435,19.917c-3.843,2.237-8.445,3.632-14.414,3.33c-18.586-0.935-44.408,1.655-12.321-58.389
				c16.936-31.694,11.904-40.459,27.386-36.839c15.333,3.584,16.715,7.87,13.871,19.777c-0.497,2.088-0.773,2.334-1.853,6.092
				l17.393-0.955c4.932-23.651,0.283-34.684-24.379-40.085c-18.055-3.955-30.008-2.934-40.081,5.553
				c-11.806,9.951-15.152,19.599-20.502,34.096c-1.124,3.043-7.838,6.807-12.663,11.549c-1.279,1.258-0.197,3.335-0.407,4.24
				c-0.345,1.469,8.616,3.953,8.791,5.401c0.45,3.737-0.835,5.706-1.364,7.97c-0.239,1.014-4.593,3.208-5.033,3.64
				c-0.531,0.518,0.779,1.884,2.222,3.121c1.444,1.238,6.692,1.645,6.692,1.645s-9.437,2.728-8.057,4.533
				c3.037,3.975,4.604,3.759,4.664,5.989c0.019,0.646-0.438,4.71-1.59,6.46c-2.652,4.026-2.22,12.817,2.455,15.777
				c10.607,6.716,28.596,9.339,40.521,11.637c9.247,1.782,19.006,0.324,26.112-3.119c10.937-5.299,14.23-15.079,17.18-27.688
				C870.571,346.402,871.109,343.52,871.628,340.166z M795.019,288.501c0.895-3.075,16.452-7.581,14.383,3.62
				C807.563,302.056,794.125,291.579,795.019,288.501z"/>
		</g>
	</g>
</g>
</svg>
